{"glyphs":{"0":{"ha":975,"x_min":79,"x_max":907,"o":"m 642 150 l 642 275 l 767 275 l 767 150 l 642 150 m 642 697 l 767 697 l 767 572 l 642 572 l 642 697 m 219 854 l 219 979 l 344 979 l 344 854 l 219 854 m 344 697 l 344 572 l 219 572 l 219 697 l 344 697 m 767 979 l 767 854 l 642 854 l 642 979 l 767 979 m 219 275 l 344 275 l 344 150 l 219 150 l 219 275 m 219 10 l 219 133 l 344 133 l 344 10 l 219 10 m 642 838 l 767 838 l 767 714 l 642 714 l 642 838 m 907 697 l 907 572 l 783 572 l 783 697 l 907 697 m 642 292 l 642 415 l 767 415 l 767 292 l 642 292 m 642 556 l 767 556 l 767 432 l 642 432 l 642 556 m 783 275 l 907 275 l 907 150 l 783 150 l 783 275 m 219 292 l 219 415 l 344 415 l 344 292 l 219 292 m 361 979 l 485 979 l 485 854 l 361 854 l 361 979 m 219 838 l 344 838 l 344 714 l 219 714 l 219 838 m 501 854 l 501 979 l 625 979 l 625 854 l 501 854 m 642 10 l 642 133 l 767 133 l 767 10 l 642 10 m 203 275 l 203 150 l 79 150 l 79 275 l 203 275 m 203 697 l 203 572 l 79 572 l 79 697 l 203 697 m 219 432 l 219 556 l 344 556 l 344 432 l 219 432 m 783 714 l 783 838 l 907 838 l 907 714 l 783 714 m 783 432 l 783 556 l 907 556 l 907 432 l 783 432 m 907 415 l 907 292 l 783 292 l 783 415 l 907 415 m 203 838 l 203 714 l 79 714 l 79 838 l 203 838 m 203 556 l 203 432 l 79 432 l 79 556 l 203 556 m 203 415 l 203 292 l 79 292 l 79 415 l 203 415 m 501 10 l 501 133 l 625 133 l 625 10 l 501 10 m 361 10 l 361 133 l 485 133 l 485 10 l 361 10 z "},"1":{"ha":557,"x_min":79,"x_max":485,"o":"m 219 979 l 344 979 l 344 854 l 219 854 l 219 979 m 219 275 l 344 275 l 344 150 l 219 150 l 219 275 m 219 697 l 344 697 l 344 572 l 219 572 l 219 697 m 485 275 l 485 150 l 361 150 l 361 275 l 485 275 m 361 854 l 361 979 l 485 979 l 485 854 l 361 854 m 485 697 l 485 572 l 361 572 l 361 697 l 485 697 m 219 838 l 344 838 l 344 714 l 219 714 l 219 838 m 219 415 l 344 415 l 344 292 l 219 292 l 219 415 m 219 556 l 344 556 l 344 432 l 219 432 l 219 556 m 219 133 l 344 133 l 344 10 l 219 10 l 219 133 m 361 10 l 361 133 l 485 133 l 485 10 l 361 10 m 361 838 l 485 838 l 485 714 l 361 714 l 361 838 m 361 432 l 361 556 l 485 556 l 485 432 l 361 432 m 361 292 l 361 415 l 485 415 l 485 292 l 361 292 m 79 714 l 79 838 l 203 838 l 203 714 l 79 714 z "},"2":{"ha":965,"x_min":69,"x_max":899,"o":"m 69 275 l 194 275 l 194 150 l 69 150 l 69 275 m 351 979 l 476 979 l 476 854 l 351 854 l 351 979 m 774 572 l 774 697 l 899 697 l 899 572 l 774 572 m 774 714 l 774 838 l 899 838 l 899 714 l 774 714 m 617 979 l 617 854 l 493 854 l 493 979 l 617 979 m 633 697 l 757 697 l 757 572 l 633 572 l 633 697 m 194 838 l 194 714 l 69 714 l 69 838 l 194 838 m 757 979 l 757 854 l 633 854 l 633 979 l 757 979 m 899 133 l 899 10 l 774 10 l 774 133 l 899 133 m 351 10 l 351 133 l 476 133 l 476 10 l 351 10 m 351 415 l 476 415 l 476 292 l 351 292 l 351 415 m 211 275 l 335 275 l 335 150 l 211 150 l 211 275 m 194 133 l 194 10 l 69 10 l 69 133 l 194 133 m 351 556 l 476 556 l 476 432 l 351 432 l 351 556 m 211 854 l 211 979 l 335 979 l 335 854 l 211 854 m 633 556 l 757 556 l 757 432 l 633 432 l 633 556 m 633 838 l 757 838 l 757 714 l 633 714 l 633 838 m 757 133 l 757 10 l 633 10 l 633 133 l 757 133 m 211 415 l 335 415 l 335 292 l 211 292 l 211 415 m 335 838 l 335 714 l 211 714 l 211 838 l 335 838 m 211 133 l 335 133 l 335 10 l 211 10 l 211 133 m 493 133 l 617 133 l 617 10 l 493 10 l 493 133 m 493 556 l 617 556 l 617 432 l 493 432 l 493 556 z "},"3":{"ha":993,"x_min":82,"x_max":911,"o":"m 911 275 l 911 150 l 786 150 l 786 275 l 911 275 m 786 697 l 911 697 l 911 572 l 786 572 l 786 697 m 364 854 l 364 979 l 489 979 l 489 854 l 364 854 m 786 714 l 786 838 l 911 838 l 911 714 l 786 714 m 646 150 l 646 275 l 769 275 l 769 150 l 646 150 m 769 979 l 769 854 l 646 854 l 646 979 l 769 979 m 207 838 l 207 714 l 82 714 l 82 838 l 207 838 m 769 697 l 769 572 l 646 572 l 646 697 l 769 697 m 786 292 l 786 415 l 911 415 l 911 292 l 786 292 m 364 133 l 489 133 l 489 10 l 364 10 l 364 133 m 489 556 l 489 432 l 364 432 l 364 556 l 489 556 m 224 854 l 224 979 l 347 979 l 347 854 l 224 854 m 222 272 l 347 272 l 347 149 l 222 149 l 222 272 m 506 854 l 506 979 l 629 979 l 629 854 l 506 854 m 82 149 l 82 272 l 207 272 l 207 149 l 82 149 m 646 838 l 769 838 l 769 714 l 646 714 l 646 838 m 769 133 l 769 10 l 646 10 l 646 133 l 769 133 m 646 432 l 646 556 l 769 556 l 769 432 l 646 432 m 506 556 l 629 556 l 629 432 l 506 432 l 506 556 m 224 10 l 224 133 l 347 133 l 347 10 l 224 10 m 224 714 l 224 838 l 347 838 l 347 714 l 224 714 m 769 415 l 769 292 l 646 292 l 646 415 l 769 415 m 506 10 l 506 133 l 629 133 l 629 10 l 506 10 z "},"4":{"ha":975,"x_min":65,"x_max":894,"o":"m 472 838 l 472 714 l 347 714 l 347 838 l 472 838 m 629 150 l 629 275 l 753 275 l 753 150 l 629 150 m 613 275 l 613 150 l 489 150 l 489 275 l 613 275 m 489 979 l 613 979 l 613 854 l 489 854 l 489 979 m 347 292 l 347 415 l 472 415 l 472 292 l 347 292 m 629 979 l 753 979 l 753 854 l 629 854 l 629 979 m 769 415 l 894 415 l 894 292 l 769 292 l 769 415 m 190 415 l 190 292 l 65 292 l 65 415 l 190 415 m 629 697 l 753 697 l 753 572 l 629 572 l 629 697 m 207 572 l 207 697 l 331 697 l 331 572 l 207 572 m 65 432 l 65 556 l 190 556 l 190 432 l 65 432 m 489 572 l 489 697 l 613 697 l 613 572 l 489 572 m 629 10 l 629 133 l 753 133 l 753 10 l 629 10 m 629 556 l 753 556 l 753 432 l 629 432 l 629 556 m 629 415 l 753 415 l 753 292 l 629 292 l 629 415 m 331 415 l 331 292 l 207 292 l 207 415 l 331 415 m 489 432 l 489 556 l 613 556 l 613 432 l 489 432 m 629 838 l 753 838 l 753 714 l 629 714 l 629 838 m 489 10 l 489 133 l 613 133 l 613 10 l 489 10 m 489 292 l 489 415 l 613 415 l 613 292 l 489 292 m 613 838 l 613 714 l 489 714 l 489 838 l 613 838 z "},"5":{"ha":844,"x_min":90,"x_max":778,"o":"m 90 572 l 90 697 l 215 697 l 215 572 l 90 572 m 90 979 l 215 979 l 215 854 l 90 854 l 90 979 m 497 979 l 497 854 l 372 854 l 372 979 l 497 979 m 372 10 l 372 133 l 497 133 l 497 10 l 372 10 m 654 979 l 778 979 l 778 854 l 654 854 l 654 979 m 514 979 l 638 979 l 638 854 l 514 854 l 514 979 m 654 275 l 778 275 l 778 150 l 654 150 l 654 275 m 215 556 l 215 432 l 90 432 l 90 556 l 215 556 m 514 150 l 514 275 l 638 275 l 638 150 l 514 150 m 232 854 l 232 979 l 356 979 l 356 854 l 232 854 m 356 697 l 356 572 l 232 572 l 232 697 l 356 697 m 372 432 l 372 556 l 497 556 l 497 432 l 372 432 m 90 10 l 90 133 l 215 133 l 215 10 l 90 10 m 90 714 l 90 838 l 215 838 l 215 714 l 90 714 m 654 415 l 778 415 l 778 292 l 654 292 l 654 415 m 514 10 l 514 133 l 638 133 l 638 10 l 514 10 m 638 556 l 638 432 l 514 432 l 514 556 l 638 556 m 232 133 l 356 133 l 356 10 l 232 10 l 232 133 m 638 415 l 638 292 l 514 292 l 514 415 l 638 415 m 232 556 l 356 556 l 356 432 l 232 432 l 232 556 m 356 838 l 356 714 l 232 714 l 232 838 l 356 838 z "},"6":{"ha":972,"x_min":76,"x_max":906,"o":"m 781 150 l 781 275 l 906 275 l 906 150 l 781 150 m 201 275 l 201 150 l 76 150 l 76 275 l 201 275 m 358 854 l 358 979 l 483 979 l 483 854 l 358 854 m 76 697 l 201 697 l 201 572 l 76 572 l 76 697 m 764 979 l 764 854 l 640 854 l 640 979 l 764 979 m 764 275 l 764 150 l 640 150 l 640 275 l 764 275 m 500 979 l 624 979 l 624 854 l 500 854 l 500 979 m 483 133 l 483 10 l 358 10 l 358 133 l 483 133 m 201 415 l 201 292 l 76 292 l 76 415 l 201 415 m 76 556 l 201 556 l 201 432 l 76 432 l 76 556 m 218 572 l 218 697 l 342 697 l 342 572 l 218 572 m 342 275 l 342 150 l 218 150 l 218 275 l 342 275 m 906 415 l 906 292 l 781 292 l 781 415 l 906 415 m 358 714 l 358 838 l 483 838 l 483 714 l 358 714 m 358 432 l 358 556 l 483 556 l 483 432 l 358 432 m 640 10 l 640 133 l 764 133 l 764 10 l 640 10 m 640 556 l 764 556 l 764 432 l 640 432 l 640 556 m 640 292 l 640 415 l 764 415 l 764 292 l 640 292 m 342 838 l 342 714 l 218 714 l 218 838 l 342 838 m 500 133 l 624 133 l 624 10 l 500 10 l 500 133 m 218 432 l 218 556 l 342 556 l 342 432 l 218 432 m 218 10 l 218 133 l 342 133 l 342 10 l 218 10 m 500 432 l 500 556 l 624 556 l 624 432 l 500 432 m 218 415 l 342 415 l 342 292 l 218 292 l 218 415 z "},"7":{"ha":978,"x_min":76,"x_max":906,"o":"m 358 854 l 358 979 l 483 979 l 483 854 l 358 854 m 358 275 l 483 275 l 483 150 l 358 150 l 358 275 m 201 979 l 201 854 l 76 854 l 76 979 l 201 979 m 781 979 l 906 979 l 906 854 l 781 854 l 781 979 m 358 133 l 483 133 l 483 10 l 358 10 l 358 133 m 640 697 l 764 697 l 764 572 l 640 572 l 640 697 m 764 979 l 764 854 l 640 854 l 640 979 l 764 979 m 500 275 l 624 275 l 624 150 l 500 150 l 500 275 m 342 979 l 342 854 l 218 854 l 218 979 l 342 979 m 500 979 l 624 979 l 624 854 l 500 854 l 500 979 m 500 697 l 624 697 l 624 572 l 500 572 l 500 697 m 358 292 l 358 415 l 483 415 l 483 292 l 358 292 m 781 838 l 906 838 l 906 714 l 781 714 l 781 838 m 640 556 l 764 556 l 764 432 l 640 432 l 640 556 m 640 838 l 764 838 l 764 714 l 640 714 l 640 838 m 500 415 l 624 415 l 624 292 l 500 292 l 500 415 m 500 556 l 624 556 l 624 432 l 500 432 l 500 556 m 500 133 l 624 133 l 624 10 l 500 10 l 500 133 z "},"8":{"ha":985,"x_min":76,"x_max":906,"o":"m 201 697 l 201 572 l 76 572 l 76 697 l 201 697 m 201 275 l 201 150 l 76 150 l 76 275 l 201 275 m 906 697 l 906 572 l 781 572 l 781 697 l 906 697 m 781 275 l 906 275 l 906 150 l 781 150 l 781 275 m 358 854 l 358 979 l 483 979 l 483 854 l 358 854 m 764 275 l 764 150 l 640 150 l 640 275 l 764 275 m 640 854 l 640 979 l 764 979 l 764 854 l 640 854 m 201 838 l 201 714 l 76 714 l 76 838 l 201 838 m 201 415 l 201 292 l 76 292 l 76 415 l 201 415 m 906 838 l 906 714 l 781 714 l 781 838 l 906 838 m 640 697 l 764 697 l 764 572 l 640 572 l 640 697 m 781 292 l 781 415 l 906 415 l 906 292 l 781 292 m 483 133 l 483 10 l 358 10 l 358 133 l 483 133 m 218 697 l 342 697 l 342 572 l 218 572 l 218 697 m 218 854 l 218 979 l 342 979 l 342 854 l 218 854 m 218 275 l 342 275 l 342 150 l 218 150 l 218 275 m 358 432 l 358 556 l 483 556 l 483 432 l 358 432 m 624 979 l 624 854 l 500 854 l 500 979 l 624 979 m 764 415 l 764 292 l 640 292 l 640 415 l 764 415 m 764 838 l 764 714 l 640 714 l 640 838 l 764 838 m 764 556 l 764 432 l 640 432 l 640 556 l 764 556 m 500 432 l 500 556 l 624 556 l 624 432 l 500 432 m 640 10 l 640 133 l 764 133 l 764 10 l 640 10 m 342 415 l 342 292 l 218 292 l 218 415 l 342 415 m 218 10 l 218 133 l 342 133 l 342 10 l 218 10 m 218 432 l 218 556 l 342 556 l 342 432 l 218 432 m 500 10 l 500 133 l 624 133 l 624 10 l 500 10 m 218 838 l 342 838 l 342 714 l 218 714 l 218 838 z "},"9":{"ha":985,"x_min":76,"x_max":906,"o":"m 358 979 l 483 979 l 483 854 l 358 854 l 358 979 m 201 697 l 201 572 l 76 572 l 76 697 l 201 697 m 906 697 l 906 572 l 781 572 l 781 697 l 906 697 m 906 415 l 906 292 l 781 292 l 781 415 l 906 415 m 640 979 l 764 979 l 764 854 l 640 854 l 640 979 m 640 150 l 640 275 l 764 275 l 764 150 l 640 150 m 906 556 l 906 432 l 781 432 l 781 556 l 906 556 m 201 838 l 201 714 l 76 714 l 76 838 l 201 838 m 500 854 l 500 979 l 624 979 l 624 854 l 500 854 m 764 697 l 764 572 l 640 572 l 640 697 l 764 697 m 906 838 l 906 714 l 781 714 l 781 838 l 906 838 m 483 133 l 483 10 l 358 10 l 358 133 l 483 133 m 500 150 l 500 275 l 624 275 l 624 150 l 500 150 m 218 854 l 218 979 l 342 979 l 342 854 l 218 854 m 218 572 l 218 697 l 342 697 l 342 572 l 218 572 m 358 432 l 358 556 l 483 556 l 483 432 l 358 432 m 640 292 l 640 415 l 764 415 l 764 292 l 640 292 m 764 556 l 764 432 l 640 432 l 640 556 l 764 556 m 764 838 l 764 714 l 640 714 l 640 838 l 764 838 m 218 133 l 342 133 l 342 10 l 218 10 l 218 133 m 218 838 l 342 838 l 342 714 l 218 714 l 218 838 m 218 556 l 342 556 l 342 432 l 218 432 l 218 556 m 500 10 l 500 133 l 624 133 l 624 10 l 500 10 m 624 556 l 624 432 l 500 432 l 500 556 l 624 556 z "}," ":{"ha":281,"x_min":0,"x_max":0,"o":""},"!":{"ha":415,"x_min":64,"x_max":329,"o":"m 64 854 l 64 979 l 189 979 l 189 854 l 64 854 m 64 697 l 189 697 l 189 572 l 64 572 l 64 697 m 206 854 l 206 979 l 329 979 l 329 854 l 206 854 m 206 572 l 206 697 l 329 697 l 329 572 l 206 572 m 64 432 l 64 556 l 189 556 l 189 432 l 64 432 m 64 133 l 189 133 l 189 10 l 64 10 l 64 133 m 64 714 l 64 838 l 189 838 l 189 714 l 64 714 m 64 292 l 64 415 l 189 415 l 189 292 l 64 292 m 206 292 l 206 415 l 329 415 l 329 292 l 206 292 m 206 838 l 329 838 l 329 714 l 206 714 l 206 838 m 206 10 l 206 133 l 329 133 l 329 10 l 206 10 m 206 432 l 206 556 l 329 556 l 329 432 l 206 432 z "},"\"":{"ha":836,"x_min":76,"x_max":764,"o":"m 201 1119 l 201 994 l 76 994 l 76 1119 l 201 1119 m 640 838 l 764 838 l 764 713 l 640 713 l 640 838 m 218 713 l 218 838 l 342 838 l 342 713 l 218 713 m 500 994 l 500 1119 l 624 1119 l 624 994 l 500 994 m 640 994 l 640 1119 l 764 1119 l 764 994 l 640 994 m 218 994 l 218 1119 l 342 1119 l 342 994 l 218 994 m 201 978 l 201 854 l 76 854 l 76 978 l 201 978 m 218 854 l 218 978 l 342 978 l 342 854 l 218 854 m 624 978 l 624 854 l 500 854 l 500 978 l 624 978 m 764 978 l 764 854 l 640 854 l 640 978 l 764 978 z "},"#":{"ha":1406,"x_min":76,"x_max":1329,"o":"m 906 697 l 906 572 l 781 572 l 781 697 l 906 697 m 781 275 l 906 275 l 906 150 l 781 150 l 781 275 m 483 697 l 483 572 l 358 572 l 358 697 l 483 697 m 1063 979 l 1188 979 l 1188 854 l 1063 854 l 1063 979 m 1063 572 l 1063 697 l 1188 697 l 1188 572 l 1063 572 m 358 150 l 358 275 l 483 275 l 483 150 l 358 150 m 906 415 l 906 292 l 781 292 l 781 415 l 906 415 m 922 854 l 922 979 l 1046 979 l 1046 854 l 922 854 m 342 697 l 342 572 l 218 572 l 218 697 l 342 697 m 906 556 l 906 432 l 781 432 l 781 556 l 906 556 m 218 275 l 342 275 l 342 150 l 218 150 l 218 275 m 640 275 l 764 275 l 764 150 l 640 150 l 640 275 m 922 697 l 1046 697 l 1046 572 l 922 572 l 922 697 m 906 133 l 906 10 l 781 10 l 781 133 l 906 133 m 358 10 l 358 133 l 483 133 l 483 10 l 358 10 m 76 292 l 76 415 l 201 415 l 201 292 l 76 292 m 1329 697 l 1329 574 l 1204 574 l 1204 697 l 1329 697 m 640 854 l 640 979 l 764 979 l 764 854 l 640 854 m 500 979 l 624 979 l 624 854 l 500 854 l 500 979 m 500 697 l 624 697 l 624 572 l 500 572 l 500 697 m 358 556 l 483 556 l 483 432 l 358 432 l 358 556 m 483 415 l 483 292 l 358 292 l 358 415 l 483 415 m 1063 415 l 1188 415 l 1188 292 l 1063 292 l 1063 415 m 1063 838 l 1188 838 l 1188 714 l 1063 714 l 1063 838 m 640 572 l 640 697 l 764 697 l 764 572 l 640 572 m 640 714 l 640 838 l 764 838 l 764 714 l 640 714 m 218 133 l 342 133 l 342 10 l 218 10 l 218 133 m 922 838 l 1046 838 l 1046 714 l 922 714 l 922 838 m 922 292 l 922 415 l 1046 415 l 1046 292 l 922 292 m 922 432 l 922 556 l 1046 556 l 1046 432 l 922 432 m 764 133 l 764 10 l 640 10 l 640 133 l 764 133 m 500 432 l 500 556 l 624 556 l 624 432 l 500 432 m 640 292 l 640 415 l 764 415 l 764 292 l 640 292 m 500 838 l 624 838 l 624 714 l 500 714 l 500 838 m 500 415 l 624 415 l 624 292 l 500 292 l 500 415 m 342 415 l 342 292 l 218 292 l 218 415 l 342 415 z "},"$":{"ha":840,"x_min":76,"x_max":764,"o":"m 358 979 l 483 979 l 483 854 l 358 854 l 358 979 m 76 697 l 201 697 l 201 572 l 76 572 l 76 697 m 483 697 l 483 572 l 358 572 l 358 697 l 483 697 m 358 997 l 358 1122 l 483 1122 l 483 997 l 358 997 m 218 854 l 218 979 l 342 979 l 342 854 l 218 854 m 358 432 l 358 556 l 483 556 l 483 432 l 358 432 m 640 854 l 640 979 l 764 979 l 764 854 l 640 854 m 358 -135 l 358 -11 l 483 -11 l 483 -135 l 358 -135 m 640 275 l 764 275 l 764 150 l 640 150 l 640 275 m 624 979 l 624 854 l 500 854 l 500 979 l 624 979 m 481 275 l 481 150 l 357 150 l 357 275 l 481 275 m 218 572 l 218 697 l 342 697 l 342 572 l 218 572 m 201 133 l 201 10 l 76 10 l 76 133 l 201 133 m 358 10 l 358 133 l 483 133 l 483 10 l 358 10 m 201 838 l 201 714 l 76 714 l 76 838 l 201 838 m 640 415 l 764 415 l 764 292 l 640 292 l 640 415 m 500 432 l 500 556 l 624 556 l 624 432 l 500 432 m 500 415 l 624 415 l 624 292 l 500 292 l 500 415 m 481 415 l 481 292 l 357 292 l 357 415 l 481 415 m 342 556 l 342 432 l 218 432 l 218 556 l 342 556 m 342 133 l 342 10 l 218 10 l 218 133 l 342 133 m 500 133 l 624 133 l 624 10 l 500 10 l 500 133 m 482 838 l 482 714 l 358 714 l 358 838 l 482 838 z "},"%":{"ha":1826,"x_min":64,"x_max":1757,"o":"m 346 979 l 471 979 l 471 854 l 346 854 l 346 979 m 1363 979 l 1488 979 l 1488 854 l 1363 854 l 1363 979 m 189 697 l 189 572 l 64 572 l 64 697 l 189 697 m 1486 150 l 1486 275 l 1611 275 l 1611 150 l 1486 150 m 1213 979 l 1338 979 l 1338 854 l 1213 854 l 1213 979 m 1632 275 l 1757 275 l 1757 150 l 1632 150 l 1632 275 m 1322 275 l 1322 150 l 1197 150 l 1197 275 l 1322 275 m 1074 572 l 1074 697 l 1199 697 l 1199 572 l 1074 572 m 489 275 l 614 275 l 614 150 l 489 150 l 489 275 m 1197 556 l 1322 556 l 1322 432 l 1197 432 l 1197 556 m 206 572 l 206 697 l 329 697 l 329 572 l 206 572 m 1322 133 l 1322 10 l 1197 10 l 1197 133 l 1322 133 m 1197 292 l 1197 415 l 1322 415 l 1322 292 l 1197 292 m 906 432 l 906 556 l 1031 556 l 1031 432 l 906 432 m 64 838 l 189 838 l 189 714 l 64 714 l 64 838 m 1176 275 l 1176 150 l 1053 150 l 1053 275 l 1176 275 m 929 572 l 929 697 l 1053 697 l 1053 572 l 929 572 m 346 556 l 471 556 l 471 432 l 346 432 l 346 556 m 1074 838 l 1199 838 l 1199 714 l 1074 714 l 1074 838 m 206 979 l 329 979 l 329 854 l 206 854 l 206 979 m 1338 838 l 1338 714 l 1213 714 l 1213 838 l 1338 838 m 1611 556 l 1611 432 l 1486 432 l 1486 556 l 1611 556 m 1611 415 l 1611 292 l 1486 292 l 1486 415 l 1611 415 m 628 572 l 628 697 l 751 697 l 751 572 l 628 572 m 631 150 l 631 275 l 754 275 l 754 150 l 631 150 m 1611 133 l 1611 10 l 1486 10 l 1486 133 l 1611 133 m 1632 415 l 1757 415 l 1757 292 l 1632 292 l 1632 415 m 488 697 l 611 697 l 611 572 l 488 572 l 488 697 m 488 979 l 611 979 l 611 854 l 488 854 l 488 979 m 1336 133 l 1461 133 l 1461 10 l 1336 10 l 1336 133 m 1336 432 l 1336 556 l 1461 556 l 1461 432 l 1336 432 m 489 133 l 614 133 l 614 10 l 489 10 l 489 133 m 768 432 l 768 556 l 892 556 l 892 432 l 768 432 m 1053 292 l 1053 415 l 1176 415 l 1176 292 l 1053 292 m 894 415 l 894 292 l 771 292 l 771 415 l 894 415 m 488 432 l 488 556 l 611 556 l 611 432 l 488 432 m 631 292 l 631 415 l 754 415 l 754 292 l 631 292 m 349 10 l 349 133 l 472 133 l 472 10 l 349 10 m 206 714 l 206 838 l 329 838 l 329 714 l 206 714 m 206 556 l 329 556 l 329 432 l 206 432 l 206 556 m 628 838 l 751 838 l 751 714 l 628 714 l 628 838 m 488 838 l 611 838 l 611 714 l 488 714 l 488 838 z "},"&":{"ha":1244,"x_min":64,"x_max":1175,"o":"m 471 697 l 471 572 l 346 572 l 346 697 l 471 697 m 64 275 l 189 275 l 189 150 l 64 150 l 64 275 m 768 275 l 893 275 l 893 150 l 768 150 l 768 275 m 471 979 l 471 854 l 346 854 l 346 979 l 471 979 m 329 275 l 329 150 l 206 150 l 206 275 l 329 275 m 893 415 l 893 292 l 768 292 l 768 415 l 893 415 m 751 697 l 751 572 l 628 572 l 628 697 l 751 697 m 346 714 l 346 838 l 471 838 l 471 714 l 346 714 m 471 133 l 471 10 l 346 10 l 346 133 l 471 133 m 910 275 l 1033 275 l 1033 150 l 910 150 l 910 275 m 488 572 l 488 697 l 611 697 l 611 572 l 488 572 m 768 714 l 768 838 l 893 838 l 893 714 l 768 714 m 1175 556 l 1175 432 l 1050 432 l 1050 556 l 1175 556 m 1175 133 l 1175 10 l 1050 10 l 1050 133 l 1175 133 m 611 979 l 611 854 l 488 854 l 488 979 l 611 979 m 628 854 l 628 979 l 751 979 l 751 854 l 628 854 m 471 556 l 471 432 l 346 432 l 346 556 l 471 556 m 751 275 l 751 150 l 628 150 l 628 275 l 751 275 m 64 415 l 189 415 l 189 292 l 64 292 l 64 415 m 751 838 l 751 714 l 628 714 l 628 838 l 751 838 m 628 432 l 628 556 l 751 556 l 751 432 l 628 432 m 1033 133 l 1033 10 l 910 10 l 910 133 l 1033 133 m 751 415 l 751 292 l 628 292 l 628 415 l 751 415 m 910 556 l 1033 556 l 1033 432 l 910 432 l 910 556 m 910 415 l 1033 415 l 1033 292 l 910 292 l 910 415 m 628 10 l 628 133 l 751 133 l 751 10 l 628 10 m 206 714 l 206 838 l 329 838 l 329 714 l 206 714 m 329 415 l 329 292 l 206 292 l 206 415 l 329 415 m 329 556 l 329 432 l 206 432 l 206 556 l 329 556 m 488 432 l 488 556 l 611 556 l 611 432 l 488 432 m 206 133 l 329 133 l 329 10 l 206 10 l 206 133 m 488 10 l 488 133 l 611 133 l 611 10 l 488 10 z "},"'":{"ha":415,"x_min":64,"x_max":329,"o":"m 64 1121 l 189 1121 l 189 996 l 64 996 l 64 1121 m 206 714 l 206 839 l 329 839 l 329 714 l 206 714 m 206 996 l 206 1121 l 329 1121 l 329 996 l 206 996 m 64 856 l 64 979 l 189 979 l 189 856 l 64 856 m 206 856 l 206 979 l 329 979 l 329 856 l 206 856 z "},"(":{"ha":689,"x_min":64,"x_max":611,"o":"m 471 1122 l 471 997 l 346 997 l 346 1122 l 471 1122 m 346 -7 l 471 -7 l 471 -132 l 346 -132 l 346 -7 m 471 136 l 471 11 l 346 11 l 346 136 l 471 136 m 64 293 l 64 418 l 189 418 l 189 293 l 64 293 m 64 435 l 64 558 l 189 558 l 189 435 l 64 435 m 206 418 l 329 418 l 329 293 l 206 293 l 206 418 m 64 575 l 64 699 l 189 699 l 189 575 l 64 575 m 206 136 l 329 136 l 329 11 l 206 11 l 206 136 m 206 840 l 329 840 l 329 715 l 206 715 l 206 840 m 488 997 l 488 1122 l 611 1122 l 611 997 l 488 997 m 488 -132 l 488 -7 l 611 -7 l 611 -132 l 488 -132 m 471 981 l 471 857 l 346 857 l 346 981 l 471 981 m 206 981 l 329 981 l 329 857 l 206 857 l 206 981 m 206 699 l 329 699 l 329 575 l 206 575 l 206 699 m 206 558 l 329 558 l 329 435 l 206 435 l 206 558 m 206 276 l 329 276 l 329 153 l 206 153 l 206 276 z "},")":{"ha":690,"x_min":64,"x_max":611,"o":"m 64 1119 l 189 1119 l 189 994 l 64 994 l 64 1119 m 471 133 l 471 8 l 346 8 l 346 133 l 471 133 m 471 415 l 471 290 l 346 290 l 346 415 l 471 415 m 471 838 l 471 713 l 346 713 l 346 838 l 471 838 m 64 -10 l 189 -10 l 189 -135 l 64 -135 l 64 -10 m 611 415 l 611 290 l 488 290 l 488 415 l 611 415 m 471 696 l 471 572 l 346 572 l 346 696 l 471 696 m 471 274 l 471 150 l 346 150 l 346 274 l 471 274 m 471 978 l 471 854 l 346 854 l 346 978 l 471 978 m 206 8 l 206 133 l 329 133 l 329 8 l 206 8 m 346 432 l 346 556 l 471 556 l 471 432 l 346 432 m 206 994 l 206 1119 l 329 1119 l 329 994 l 206 994 m 206 -135 l 206 -10 l 329 -10 l 329 -135 l 206 -135 m 488 572 l 488 696 l 611 696 l 611 572 l 488 572 m 488 556 l 611 556 l 611 432 l 488 432 l 488 556 m 329 978 l 329 854 l 206 854 l 206 978 l 329 978 z "},"*":{"ha":1235,"x_min":64,"x_max":751,"o":"m 64 838 l 189 838 l 189 713 l 64 713 l 64 838 m 346 838 l 471 838 l 471 713 l 346 713 l 346 838 m 206 713 l 206 838 l 329 838 l 329 713 l 206 713 m 346 696 l 471 696 l 471 572 l 346 572 l 346 696 m 488 838 l 611 838 l 611 713 l 488 713 l 488 838 m 346 854 l 346 978 l 471 978 l 471 854 l 346 854 m 628 713 l 628 838 l 751 838 l 751 713 l 628 713 m 206 1119 l 329 1119 l 329 994 l 206 994 l 206 1119 m 611 1119 l 611 994 l 488 994 l 488 1119 l 611 1119 m 488 432 l 488 556 l 611 556 l 611 432 l 488 432 m 329 556 l 329 432 l 206 432 l 206 556 l 329 556 z "},"+":{"ha":829,"x_min":64,"x_max":751,"o":"m 346 572 l 346 697 l 471 697 l 471 572 l 346 572 m 346 150 l 346 275 l 471 275 l 471 150 l 346 150 m 346 432 l 346 556 l 471 556 l 471 432 l 346 432 m 346 415 l 471 415 l 471 292 l 346 292 l 346 415 m 346 133 l 471 133 l 471 10 l 346 10 l 346 133 m 189 415 l 189 292 l 64 292 l 64 415 l 189 415 m 488 415 l 611 415 l 611 292 l 488 292 l 488 415 m 628 415 l 751 415 l 751 292 l 628 292 l 628 415 m 206 292 l 206 415 l 329 415 l 329 292 l 206 292 z "},",":{"ha":404,"x_min":64,"x_max":329,"o":"m 64 -275 l 64 -150 l 189 -150 l 189 -275 l 64 -275 m 329 -7 l 329 -132 l 206 -132 l 206 -7 l 329 -7 m 64 133 l 189 133 l 189 10 l 64 10 l 64 133 m 206 133 l 329 133 l 329 10 l 206 10 l 206 133 z "},"­":{"ha":544,"x_min":64,"x_max":471,"o":"m 471 557 l 471 433 l 346 433 l 346 557 l 471 557 m 189 557 l 189 433 l 64 433 l 64 557 l 189 557 m 329 557 l 329 433 l 206 433 l 206 557 l 329 557 z "},".":{"ha":394,"x_min":64,"x_max":329,"o":"m 64 133 l 189 133 l 189 10 l 64 10 l 64 133 m 329 133 l 329 10 l 206 10 l 206 133 l 329 133 z "},"/":{"ha":829,"x_min":64,"x_max":751,"o":"m 346 697 l 471 697 l 471 572 l 346 572 l 346 697 m 64 275 l 189 275 l 189 150 l 64 150 l 64 275 m 64 10 l 64 133 l 189 133 l 189 10 l 64 10 m 628 979 l 751 979 l 751 854 l 628 854 l 628 979 m 471 556 l 471 432 l 346 432 l 346 556 l 471 556 m 206 275 l 329 275 l 329 150 l 206 150 l 206 275 m 346 292 l 346 415 l 471 415 l 471 292 l 346 292 m 488 697 l 611 697 l 611 572 l 488 572 l 488 697 m 611 979 l 611 854 l 488 854 l 488 979 l 611 979 m 488 838 l 611 838 l 611 714 l 488 714 l 488 838 m 206 415 l 329 415 l 329 292 l 206 292 l 206 415 m 628 838 l 751 838 l 751 714 l 628 714 l 628 838 m 206 556 l 329 556 l 329 432 l 206 432 l 206 556 m 206 133 l 329 133 l 329 10 l 206 10 l 206 133 z "},":":{"ha":429,"x_min":76,"x_max":342,"o":"m 76 697 l 201 697 l 201 572 l 76 572 l 76 697 m 76 10 l 76 133 l 201 133 l 201 10 l 76 10 m 218 572 l 218 697 l 342 697 l 342 572 l 218 572 m 218 10 l 218 133 l 342 133 l 342 10 l 218 10 z "},";":{"ha":410,"x_min":76,"x_max":342,"o":"m 76 697 l 201 697 l 201 572 l 76 572 l 76 697 m 76 -147 l 201 -147 l 201 -272 l 76 -272 l 76 -147 m 218 -132 l 218 -7 l 342 -7 l 342 -132 l 218 -132 m 342 697 l 342 572 l 218 572 l 218 697 l 342 697 m 76 133 l 201 133 l 201 10 l 76 10 l 76 133 m 342 133 l 342 10 l 218 10 l 218 133 l 342 133 z "},"<":{"ha":690,"x_min":76,"x_max":624,"o":"m 483 697 l 483 572 l 358 572 l 358 697 l 483 697 m 358 275 l 483 275 l 483 150 l 358 150 l 358 275 m 500 572 l 500 697 l 624 697 l 624 572 l 500 572 m 483 556 l 483 432 l 358 432 l 358 556 l 483 556 m 358 133 l 483 133 l 483 10 l 358 10 l 358 133 m 342 275 l 342 150 l 218 150 l 218 275 l 342 275 m 76 292 l 76 415 l 201 415 l 201 292 l 76 292 m 218 415 l 342 415 l 342 292 l 218 292 l 218 415 m 500 133 l 624 133 l 624 10 l 500 10 l 500 133 m 342 556 l 342 432 l 218 432 l 218 556 l 342 556 z "},"=":{"ha":836,"x_min":76,"x_max":764,"o":"m 76 572 l 76 697 l 201 697 l 201 572 l 76 572 m 358 572 l 358 697 l 483 697 l 483 572 l 358 572 m 640 697 l 764 697 l 764 572 l 640 572 l 640 697 m 624 697 l 624 572 l 500 572 l 500 697 l 624 697 m 358 415 l 483 415 l 483 292 l 358 292 l 358 415 m 218 572 l 218 697 l 342 697 l 342 572 l 218 572 m 76 415 l 201 415 l 201 292 l 76 292 l 76 415 m 500 415 l 624 415 l 624 292 l 500 292 l 500 415 m 640 415 l 764 415 l 764 292 l 640 292 l 640 415 m 218 292 l 218 415 l 342 415 l 342 292 l 218 292 z "},">":{"ha":697,"x_min":76,"x_max":624,"o":"m 76 697 l 201 697 l 201 572 l 76 572 l 76 697 m 483 275 l 483 150 l 358 150 l 358 275 l 483 275 m 358 292 l 358 415 l 483 415 l 483 292 l 358 292 m 358 432 l 358 556 l 483 556 l 483 432 l 358 432 m 342 697 l 342 572 l 218 572 l 218 697 l 342 697 m 218 150 l 218 275 l 342 275 l 342 150 l 218 150 m 76 10 l 76 133 l 201 133 l 201 10 l 76 10 m 218 10 l 218 133 l 342 133 l 342 10 l 218 10 m 624 415 l 624 292 l 500 292 l 500 415 l 624 415 m 342 556 l 342 432 l 218 432 l 218 556 l 342 556 z "},"?":{"ha":840,"x_min":76,"x_max":764,"o":"m 483 697 l 483 572 l 358 572 l 358 697 l 483 697 m 358 979 l 483 979 l 483 854 l 358 854 l 358 979 m 76 854 l 76 979 l 201 979 l 201 854 l 76 854 m 500 697 l 624 697 l 624 572 l 500 572 l 500 697 m 358 432 l 358 556 l 483 556 l 483 432 l 358 432 m 624 979 l 624 854 l 500 854 l 500 979 l 624 979 m 358 10 l 358 133 l 483 133 l 483 10 l 358 10 m 483 415 l 483 292 l 358 292 l 358 415 l 483 415 m 342 979 l 342 854 l 218 854 l 218 979 l 342 979 m 500 838 l 624 838 l 624 714 l 500 714 l 500 838 m 218 415 l 342 415 l 342 292 l 218 292 l 218 415 m 764 838 l 764 714 l 640 714 l 640 838 l 764 838 m 218 133 l 342 133 l 342 10 l 218 10 l 218 133 m 342 556 l 342 432 l 218 432 l 218 556 l 342 556 z "},"@":{"ha":1388,"x_min":64,"x_max":1317,"o":"m 346 854 l 346 979 l 471 979 l 471 854 l 346 854 m 189 697 l 189 572 l 64 572 l 64 697 l 189 697 m 346 275 l 471 275 l 471 150 l 346 150 l 346 275 m 1192 697 l 1317 697 l 1317 572 l 1192 572 l 1192 697 m 768 572 l 768 697 l 893 697 l 893 572 l 768 572 m 768 854 l 768 979 l 893 979 l 893 854 l 768 854 m 206 572 l 206 697 l 329 697 l 329 572 l 206 572 m 206 275 l 329 275 l 329 150 l 206 150 l 206 275 m 628 854 l 628 979 l 751 979 l 751 854 l 628 854 m 1051 697 l 1175 697 l 1175 572 l 1051 572 l 1051 697 m 1175 415 l 1175 292 l 1050 292 l 1050 415 l 1175 415 m 893 133 l 893 10 l 768 10 l 768 133 l 893 133 m 346 10 l 346 133 l 471 133 l 471 10 l 346 10 m 893 556 l 893 432 l 768 432 l 768 556 l 893 556 m 611 979 l 611 854 l 488 854 l 488 979 l 611 979 m 1317 556 l 1317 432 l 1192 432 l 1192 556 l 1317 556 m 64 415 l 189 415 l 189 292 l 64 292 l 64 415 m 893 415 l 893 292 l 768 292 l 768 415 l 893 415 m 64 556 l 189 556 l 189 432 l 64 432 l 64 556 m 628 697 l 751 697 l 751 572 l 628 572 l 628 697 m 346 838 l 471 838 l 471 714 l 346 714 l 346 838 m 628 292 l 628 415 l 751 415 l 751 292 l 628 292 m 910 415 l 1033 415 l 1033 292 l 910 292 l 910 415 m 1175 556 l 1175 432 l 1051 432 l 1051 556 l 1175 556 m 1174 838 l 1174 714 l 1050 714 l 1050 838 l 1174 838 m 910 714 l 910 838 l 1033 838 l 1033 714 l 910 714 m 628 10 l 628 133 l 751 133 l 751 10 l 628 10 m 206 292 l 206 415 l 329 415 l 329 292 l 206 292 m 329 838 l 329 714 l 206 714 l 206 838 l 329 838 m 611 556 l 611 432 l 488 432 l 488 556 l 611 556 m 611 133 l 611 10 l 488 10 l 488 133 l 611 133 m 206 556 l 329 556 l 329 432 l 206 432 l 206 556 z "},"A":{"ha":846,"x_min":76,"x_max":764,"o":"m 76 275 l 201 275 l 201 150 l 76 150 l 76 275 m 76 697 l 201 697 l 201 572 l 76 572 l 76 697 m 499 697 l 624 697 l 624 572 l 499 572 l 499 697 m 499 979 l 624 979 l 624 854 l 499 854 l 499 979 m 499 150 l 499 275 l 624 275 l 624 150 l 499 150 m 764 697 l 764 572 l 640 572 l 640 697 l 764 697 m 764 275 l 764 150 l 640 150 l 640 275 l 764 275 m 624 133 l 624 10 l 499 10 l 499 133 l 624 133 m 624 415 l 624 292 l 499 292 l 499 415 l 624 415 m 76 292 l 76 415 l 201 415 l 201 292 l 76 292 m 76 133 l 201 133 l 201 10 l 76 10 l 76 133 m 358 979 l 482 979 l 482 854 l 358 854 l 358 979 m 76 556 l 201 556 l 201 432 l 76 432 l 76 556 m 218 979 l 342 979 l 342 854 l 218 854 l 218 979 m 624 556 l 624 432 l 499 432 l 499 556 l 624 556 m 76 714 l 76 838 l 201 838 l 201 714 l 76 714 m 499 838 l 624 838 l 624 714 l 499 714 l 499 838 m 764 556 l 764 432 l 640 432 l 640 556 l 764 556 m 640 292 l 640 415 l 764 415 l 764 292 l 640 292 m 640 714 l 640 838 l 764 838 l 764 714 l 640 714 m 358 290 l 358 414 l 482 414 l 482 290 l 358 290 m 218 839 l 342 839 l 342 715 l 218 715 l 218 839 m 218 414 l 342 414 l 342 290 l 218 290 l 218 414 m 640 10 l 640 133 l 764 133 l 764 10 l 640 10 m 358 715 l 358 839 l 482 839 l 482 715 l 358 715 z "},"B":{"ha":996,"x_min":76,"x_max":906,"o":"m 781 572 l 781 697 l 906 697 l 906 572 l 781 572 m 201 275 l 201 150 l 76 150 l 76 275 l 201 275 m 906 275 l 906 150 l 781 150 l 781 275 l 906 275 m 201 697 l 201 572 l 76 572 l 76 697 l 201 697 m 76 979 l 201 979 l 201 854 l 76 854 l 76 979 m 358 854 l 358 979 l 483 979 l 483 854 l 358 854 m 906 415 l 906 292 l 781 292 l 781 415 l 906 415 m 640 697 l 764 697 l 764 572 l 640 572 l 640 697 m 201 838 l 201 714 l 76 714 l 76 838 l 201 838 m 201 415 l 201 292 l 76 292 l 76 415 l 201 415 m 781 714 l 781 838 l 906 838 l 906 714 l 781 714 m 76 432 l 76 556 l 201 556 l 201 432 l 76 432 m 764 275 l 764 150 l 640 150 l 640 275 l 764 275 m 640 854 l 640 979 l 764 979 l 764 854 l 640 854 m 218 275 l 342 275 l 342 150 l 218 150 l 218 275 m 358 556 l 483 556 l 483 432 l 358 432 l 358 556 m 483 133 l 483 10 l 358 10 l 358 133 l 483 133 m 500 979 l 624 979 l 624 854 l 500 854 l 500 979 m 218 854 l 218 979 l 342 979 l 342 854 l 218 854 m 218 697 l 342 697 l 342 572 l 218 572 l 218 697 m 76 133 l 201 133 l 201 10 l 76 10 l 76 133 m 640 292 l 640 415 l 764 415 l 764 292 l 640 292 m 640 838 l 764 838 l 764 714 l 640 714 l 640 838 m 640 556 l 764 556 l 764 432 l 640 432 l 640 556 m 624 556 l 624 432 l 500 432 l 500 556 l 624 556 m 640 10 l 640 133 l 764 133 l 764 10 l 640 10 m 218 838 l 342 838 l 342 714 l 218 714 l 218 838 m 218 432 l 218 556 l 342 556 l 342 432 l 218 432 m 218 10 l 218 133 l 342 133 l 342 10 l 218 10 m 624 133 l 624 10 l 500 10 l 500 133 l 624 133 m 342 415 l 342 292 l 218 292 l 218 415 l 342 415 z "},"C":{"ha":983,"x_min":76,"x_max":906,"o":"m 76 572 l 76 697 l 201 697 l 201 572 l 76 572 m 781 129 l 906 129 l 906 4 l 781 4 l 781 129 m 358 854 l 358 979 l 483 979 l 483 854 l 358 854 m 358 150 l 358 275 l 483 275 l 483 150 l 358 150 m 781 979 l 906 979 l 906 854 l 781 854 l 781 979 m 358 10 l 358 133 l 483 133 l 483 10 l 358 10 m 624 129 l 624 4 l 500 4 l 500 129 l 624 129 m 76 292 l 76 415 l 201 415 l 201 292 l 76 292 m 764 979 l 764 854 l 640 854 l 640 979 l 764 979 m 624 979 l 624 854 l 500 854 l 500 979 l 624 979 m 358 838 l 483 838 l 483 714 l 358 714 l 358 838 m 76 556 l 201 556 l 201 432 l 76 432 l 76 556 m 218 275 l 342 275 l 342 150 l 218 150 l 218 275 m 218 572 l 218 697 l 342 697 l 342 572 l 218 572 m 764 129 l 764 4 l 640 4 l 640 129 l 764 129 m 218 714 l 218 838 l 342 838 l 342 714 l 218 714 m 218 556 l 342 556 l 342 432 l 218 432 l 218 556 m 218 415 l 342 415 l 342 292 l 218 292 l 218 415 z "},"D":{"ha":1110,"x_min":72,"x_max":1042,"o":"m 213 275 l 338 275 l 338 150 l 213 150 l 213 275 m 917 572 l 917 697 l 1042 697 l 1042 572 l 917 572 m 338 697 l 338 572 l 213 572 l 213 697 l 338 697 m 635 150 l 635 275 l 760 275 l 760 150 l 635 150 m 213 854 l 213 979 l 338 979 l 338 854 l 213 854 m 760 979 l 760 854 l 635 854 l 635 979 l 760 979 m 196 275 l 196 150 l 72 150 l 72 275 l 196 275 m 776 697 l 900 697 l 900 572 l 776 572 l 776 697 m 196 697 l 196 572 l 72 572 l 72 697 l 196 697 m 635 10 l 635 133 l 760 133 l 760 10 l 635 10 m 635 714 l 635 838 l 760 838 l 760 714 l 635 714 m 917 292 l 917 415 l 1042 415 l 1042 292 l 917 292 m 776 150 l 776 275 l 900 275 l 900 150 l 776 150 m 1042 556 l 1042 432 l 917 432 l 917 556 l 1042 556 m 478 979 l 478 854 l 354 854 l 354 979 l 478 979 m 213 838 l 338 838 l 338 714 l 213 714 l 213 838 m 338 556 l 338 432 l 213 432 l 213 556 l 338 556 m 72 979 l 196 979 l 196 854 l 72 854 l 72 979 m 213 10 l 213 133 l 338 133 l 338 10 l 213 10 m 338 415 l 338 292 l 213 292 l 213 415 l 338 415 m 494 979 l 618 979 l 618 854 l 494 854 l 494 979 m 776 838 l 900 838 l 900 714 l 776 714 l 776 838 m 776 415 l 900 415 l 900 292 l 776 292 l 776 415 m 776 556 l 900 556 l 900 432 l 776 432 l 776 556 m 196 838 l 196 714 l 72 714 l 72 838 l 196 838 m 72 133 l 196 133 l 196 10 l 72 10 l 72 133 m 494 10 l 494 133 l 618 133 l 618 10 l 494 10 m 196 556 l 196 432 l 72 432 l 72 556 l 196 556 m 478 133 l 478 10 l 354 10 l 354 133 l 478 133 m 72 415 l 196 415 l 196 292 l 72 292 l 72 415 z "},"E":{"ha":839,"x_min":79,"x_max":767,"o":"m 344 697 l 344 572 l 219 572 l 219 697 l 344 697 m 219 150 l 219 275 l 344 275 l 344 150 l 219 150 m 219 854 l 219 979 l 344 979 l 344 854 l 219 854 m 767 979 l 767 854 l 642 854 l 642 979 l 767 979 m 625 979 l 625 854 l 501 854 l 501 979 l 625 979 m 501 572 l 501 697 l 625 697 l 625 572 l 501 572 m 79 572 l 79 697 l 203 697 l 203 572 l 79 572 m 361 697 l 485 697 l 485 572 l 361 572 l 361 697 m 79 979 l 203 979 l 203 854 l 79 854 l 79 979 m 361 854 l 361 979 l 485 979 l 485 854 l 361 854 m 219 10 l 219 133 l 344 133 l 344 10 l 219 10 m 79 275 l 203 275 l 203 150 l 79 150 l 79 275 m 219 292 l 219 415 l 344 415 l 344 292 l 219 292 m 642 10 l 642 133 l 767 133 l 767 10 l 642 10 m 344 556 l 344 432 l 219 432 l 219 556 l 344 556 m 219 714 l 219 838 l 344 838 l 344 714 l 219 714 m 361 10 l 361 133 l 485 133 l 485 10 l 361 10 m 501 133 l 625 133 l 625 10 l 501 10 l 501 133 m 79 415 l 203 415 l 203 292 l 79 292 l 79 415 m 79 714 l 79 838 l 203 838 l 203 714 l 79 714 m 203 556 l 203 432 l 79 432 l 79 556 l 203 556 m 79 10 l 79 133 l 203 133 l 203 10 l 79 10 z "},"F":{"ha":850,"x_min":76,"x_max":764,"o":"m 76 697 l 201 697 l 201 572 l 76 572 l 76 697 m 358 697 l 483 697 l 483 572 l 358 572 l 358 697 m 76 150 l 76 275 l 201 275 l 201 150 l 76 150 m 358 854 l 358 979 l 483 979 l 483 854 l 358 854 m 76 979 l 201 979 l 201 854 l 76 854 l 76 979 m 500 854 l 500 979 l 624 979 l 624 854 l 500 854 m 624 697 l 624 572 l 500 572 l 500 697 l 624 697 m 76 292 l 76 415 l 201 415 l 201 292 l 76 292 m 342 697 l 342 572 l 218 572 l 218 697 l 342 697 m 76 432 l 76 556 l 201 556 l 201 432 l 76 432 m 640 854 l 640 979 l 764 979 l 764 854 l 640 854 m 76 10 l 76 133 l 201 133 l 201 10 l 76 10 m 218 854 l 218 979 l 342 979 l 342 854 l 218 854 m 76 714 l 76 838 l 201 838 l 201 714 l 76 714 m 218 150 l 218 275 l 342 275 l 342 150 l 218 150 m 342 415 l 342 292 l 218 292 l 218 415 l 342 415 m 218 10 l 218 133 l 342 133 l 342 10 l 218 10 m 342 838 l 342 714 l 218 714 l 218 838 l 342 838 m 342 556 l 342 432 l 218 432 l 218 556 l 342 556 z "},"G":{"ha":1147,"x_min":83,"x_max":1053,"o":"m 83 697 l 208 697 l 208 572 l 83 572 l 83 697 m 365 854 l 365 979 l 490 979 l 490 854 l 365 854 m 788 150 l 788 275 l 913 275 l 913 150 l 788 150 m 365 275 l 490 275 l 490 150 l 365 150 l 365 275 m 788 854 l 788 979 l 913 979 l 913 854 l 788 854 m 1053 275 l 1053 150 l 929 150 l 929 275 l 1053 275 m 349 275 l 349 150 l 225 150 l 225 275 l 349 275 m 788 292 l 788 415 l 913 415 l 913 292 l 788 292 m 349 697 l 349 572 l 225 572 l 225 697 l 349 697 m 771 979 l 771 854 l 647 854 l 647 979 l 771 979 m 913 556 l 913 432 l 788 432 l 788 556 l 913 556 m 365 838 l 490 838 l 490 714 l 365 714 l 365 838 m 507 979 l 631 979 l 631 854 l 507 854 l 507 979 m 208 556 l 208 432 l 83 432 l 83 556 l 208 556 m 788 133 l 913 133 l 913 10 l 788 10 l 788 133 m 365 133 l 490 133 l 490 10 l 365 10 l 365 133 m 83 415 l 208 415 l 208 292 l 83 292 l 83 415 m 1053 415 l 1053 292 l 929 292 l 929 415 l 1053 415 m 929 133 l 1053 133 l 1053 10 l 929 10 l 929 133 m 929 432 l 929 556 l 1053 556 l 1053 432 l 929 432 m 507 10 l 507 133 l 631 133 l 631 10 l 507 10 m 647 432 l 647 556 l 771 556 l 771 432 l 647 432 m 349 415 l 349 292 l 225 292 l 225 415 l 349 415 m 349 556 l 349 432 l 225 432 l 225 556 l 349 556 m 647 10 l 647 133 l 771 133 l 771 10 l 647 10 m 349 838 l 349 714 l 225 714 l 225 838 l 349 838 z "},"H":{"ha":1132,"x_min":76,"x_max":1046,"o":"m 76 697 l 201 697 l 201 572 l 76 572 l 76 697 m 201 979 l 201 854 l 76 854 l 76 979 l 201 979 m 781 979 l 906 979 l 906 854 l 781 854 l 781 979 m 906 275 l 906 150 l 781 150 l 781 275 l 906 275 m 781 697 l 906 697 l 906 572 l 781 572 l 781 697 m 76 275 l 201 275 l 201 150 l 76 150 l 76 275 m 76 838 l 201 838 l 201 714 l 76 714 l 76 838 m 342 697 l 342 572 l 218 572 l 218 697 l 342 697 m 781 556 l 906 556 l 906 432 l 781 432 l 781 556 m 922 697 l 1046 697 l 1046 572 l 922 572 l 922 697 m 342 275 l 342 150 l 218 150 l 218 275 l 342 275 m 76 133 l 201 133 l 201 10 l 76 10 l 76 133 m 1046 979 l 1046 854 l 922 854 l 922 979 l 1046 979 m 342 979 l 342 854 l 218 854 l 218 979 l 342 979 m 483 556 l 483 432 l 358 432 l 358 556 l 483 556 m 922 275 l 1046 275 l 1046 150 l 922 150 l 922 275 m 76 415 l 201 415 l 201 292 l 76 292 l 76 415 m 781 415 l 906 415 l 906 292 l 781 292 l 781 415 m 906 133 l 906 10 l 781 10 l 781 133 l 906 133 m 76 432 l 76 556 l 201 556 l 201 432 l 76 432 m 781 838 l 906 838 l 906 714 l 781 714 l 781 838 m 922 10 l 922 133 l 1046 133 l 1046 10 l 922 10 m 922 292 l 922 415 l 1046 415 l 1046 292 l 922 292 m 922 838 l 1046 838 l 1046 714 l 922 714 l 922 838 m 500 432 l 500 556 l 624 556 l 624 432 l 500 432 m 1046 556 l 1046 432 l 922 432 l 922 556 l 1046 556 m 342 556 l 342 432 l 218 432 l 218 556 l 342 556 m 342 838 l 342 714 l 218 714 l 218 838 l 342 838 m 342 133 l 342 10 l 218 10 l 218 133 l 342 133 m 640 432 l 640 556 l 764 556 l 764 432 l 640 432 m 342 415 l 342 292 l 218 292 l 218 415 l 342 415 z "},"I":{"ha":431,"x_min":90,"x_max":356,"o":"m 90 275 l 215 275 l 215 150 l 90 150 l 90 275 m 90 697 l 215 697 l 215 572 l 90 572 l 90 697 m 90 979 l 215 979 l 215 854 l 90 854 l 90 979 m 90 714 l 90 838 l 215 838 l 215 714 l 90 714 m 232 854 l 232 979 l 356 979 l 356 854 l 232 854 m 232 150 l 232 275 l 356 275 l 356 150 l 232 150 m 356 697 l 356 572 l 232 572 l 232 697 l 356 697 m 90 133 l 215 133 l 215 10 l 90 10 l 90 133 m 90 432 l 90 556 l 215 556 l 215 432 l 90 432 m 90 292 l 90 415 l 215 415 l 215 292 l 90 292 m 356 556 l 356 432 l 232 432 l 232 556 l 356 556 m 232 10 l 232 133 l 356 133 l 356 10 l 232 10 m 232 292 l 232 415 l 356 415 l 356 292 l 232 292 m 232 838 l 356 838 l 356 714 l 232 714 l 232 838 z "},"J":{"ha":708,"x_min":76,"x_max":624,"o":"m 358 979 l 483 979 l 483 854 l 358 854 l 358 979 m 483 275 l 483 150 l 358 150 l 358 275 l 483 275 m 358 572 l 358 697 l 483 697 l 483 572 l 358 572 m 624 275 l 624 150 l 500 150 l 500 275 l 624 275 m 358 714 l 358 838 l 483 838 l 483 714 l 358 714 m 76 10 l 76 133 l 201 133 l 201 10 l 76 10 m 500 979 l 624 979 l 624 854 l 500 854 l 500 979 m 358 432 l 358 556 l 483 556 l 483 432 l 358 432 m 483 415 l 483 292 l 358 292 l 358 415 l 483 415 m 358 10 l 358 133 l 483 133 l 483 10 l 358 10 m 500 697 l 624 697 l 624 572 l 500 572 l 500 697 m 624 415 l 624 292 l 500 292 l 500 415 l 624 415 m 624 556 l 624 432 l 500 432 l 500 556 l 624 556 m 218 133 l 342 133 l 342 10 l 218 10 l 218 133 m 500 714 l 500 838 l 624 838 l 624 714 l 500 714 z "},"K":{"ha":979,"x_min":90,"x_max":919,"o":"m 794 979 l 919 979 l 919 854 l 794 854 l 794 979 m 215 275 l 215 150 l 90 150 l 90 275 l 215 275 m 372 697 l 497 697 l 497 572 l 372 572 l 372 697 m 215 979 l 215 854 l 90 854 l 90 979 l 215 979 m 90 572 l 90 697 l 215 697 l 215 572 l 90 572 m 778 275 l 778 150 l 654 150 l 654 275 l 778 275 m 794 133 l 919 133 l 919 10 l 794 10 l 794 133 m 654 979 l 778 979 l 778 854 l 654 854 l 654 979 m 514 697 l 638 697 l 638 572 l 514 572 l 514 697 m 372 432 l 372 556 l 497 556 l 497 432 l 372 432 m 215 133 l 215 10 l 90 10 l 90 133 l 215 133 m 90 432 l 90 556 l 215 556 l 215 432 l 90 432 m 232 979 l 356 979 l 356 854 l 232 854 l 232 979 m 232 697 l 356 697 l 356 572 l 232 572 l 232 697 m 372 292 l 372 415 l 497 415 l 497 292 l 372 292 m 514 150 l 514 275 l 638 275 l 638 150 l 514 150 m 232 150 l 232 275 l 356 275 l 356 150 l 232 150 m 215 838 l 215 714 l 90 714 l 90 838 l 215 838 m 90 415 l 215 415 l 215 292 l 90 292 l 90 415 m 514 838 l 638 838 l 638 714 l 514 714 l 514 838 m 778 838 l 778 714 l 654 714 l 654 838 l 778 838 m 654 133 l 778 133 l 778 10 l 654 10 l 654 133 m 232 10 l 232 133 l 356 133 l 356 10 l 232 10 m 232 714 l 232 838 l 356 838 l 356 714 l 232 714 m 232 556 l 356 556 l 356 432 l 232 432 l 232 556 m 514 292 l 514 415 l 638 415 l 638 292 l 514 292 m 232 415 l 356 415 l 356 292 l 232 292 l 232 415 z "},"L":{"ha":858,"x_min":90,"x_max":778,"o":"m 90 979 l 215 979 l 215 854 l 90 854 l 90 979 m 90 275 l 215 275 l 215 150 l 90 150 l 90 275 m 90 697 l 215 697 l 215 572 l 90 572 l 90 697 m 90 415 l 215 415 l 215 292 l 90 292 l 90 415 m 356 275 l 356 150 l 232 150 l 232 275 l 356 275 m 90 432 l 90 556 l 215 556 l 215 432 l 90 432 m 372 133 l 497 133 l 497 10 l 372 10 l 372 133 m 356 697 l 356 572 l 232 572 l 232 697 l 356 697 m 215 133 l 215 10 l 90 10 l 90 133 l 215 133 m 232 854 l 232 979 l 356 979 l 356 854 l 232 854 m 90 714 l 90 838 l 215 838 l 215 714 l 90 714 m 638 133 l 638 10 l 514 10 l 514 133 l 638 133 m 778 133 l 778 10 l 654 10 l 654 133 l 778 133 m 232 838 l 356 838 l 356 714 l 232 714 l 232 838 m 232 432 l 232 556 l 356 556 l 356 432 l 232 432 m 232 292 l 232 415 l 356 415 l 356 292 l 232 292 m 232 10 l 232 133 l 356 133 l 356 10 l 232 10 z "},"M":{"ha":981,"x_min":79,"x_max":907,"o":"m 642 854 l 642 979 l 767 979 l 767 854 l 642 854 m 642 697 l 767 697 l 767 572 l 642 572 l 642 697 m 642 275 l 767 275 l 767 150 l 642 150 l 642 275 m 344 697 l 344 572 l 219 572 l 219 697 l 344 697 m 783 150 l 783 275 l 907 275 l 907 150 l 783 150 m 344 838 l 344 714 l 219 714 l 219 838 l 344 838 m 783 854 l 783 979 l 907 979 l 907 854 l 783 854 m 642 292 l 642 415 l 767 415 l 767 292 l 642 292 m 203 697 l 203 572 l 79 572 l 79 697 l 203 697 m 783 697 l 907 697 l 907 572 l 783 572 l 783 697 m 361 572 l 361 697 l 485 697 l 485 572 l 361 572 m 203 275 l 203 150 l 79 150 l 79 275 l 203 275 m 625 697 l 625 572 l 501 572 l 501 697 l 625 697 m 203 979 l 203 854 l 79 854 l 79 979 l 203 979 m 767 838 l 767 714 l 642 714 l 642 838 l 767 838 m 642 556 l 767 556 l 767 432 l 642 432 l 642 556 m 642 133 l 767 133 l 767 10 l 642 10 l 642 133 m 783 838 l 907 838 l 907 714 l 783 714 l 783 838 m 783 415 l 907 415 l 907 292 l 783 292 l 783 415 m 783 556 l 907 556 l 907 432 l 783 432 l 783 556 m 361 432 l 361 556 l 485 556 l 485 432 l 361 432 m 783 10 l 783 133 l 907 133 l 907 10 l 783 10 m 203 556 l 203 432 l 79 432 l 79 556 l 203 556 m 203 838 l 203 714 l 79 714 l 79 838 l 203 838 m 203 133 l 203 10 l 79 10 l 79 133 l 203 133 m 501 838 l 625 838 l 625 714 l 501 714 l 501 838 m 203 415 l 203 292 l 79 292 l 79 415 l 203 415 z "},"N":{"ha":860,"x_min":90,"x_max":778,"o":"m 372 697 l 497 697 l 497 572 l 372 572 l 372 697 m 90 979 l 215 979 l 215 854 l 90 854 l 90 979 m 90 275 l 215 275 l 215 150 l 90 150 l 90 275 m 215 697 l 215 572 l 90 572 l 90 697 l 215 697 m 514 150 l 514 275 l 638 275 l 638 150 l 514 150 m 372 415 l 497 415 l 497 292 l 372 292 l 372 415 m 654 697 l 778 697 l 778 572 l 654 572 l 654 697 m 215 556 l 215 432 l 90 432 l 90 556 l 215 556 m 654 854 l 654 979 l 778 979 l 778 854 l 654 854 m 778 275 l 778 150 l 654 150 l 654 275 l 778 275 m 215 415 l 215 292 l 90 292 l 90 415 l 215 415 m 232 572 l 232 697 l 356 697 l 356 572 l 232 572 m 90 133 l 215 133 l 215 10 l 90 10 l 90 133 m 372 556 l 497 556 l 497 432 l 372 432 l 372 556 m 90 714 l 90 838 l 215 838 l 215 714 l 90 714 m 654 556 l 778 556 l 778 432 l 654 432 l 654 556 m 654 838 l 778 838 l 778 714 l 654 714 l 654 838 m 778 415 l 778 292 l 654 292 l 654 415 l 778 415 m 638 415 l 638 292 l 514 292 l 514 415 l 638 415 m 232 714 l 232 838 l 356 838 l 356 714 l 232 714 m 232 432 l 232 556 l 356 556 l 356 432 l 232 432 m 654 10 l 654 133 l 778 133 l 778 10 l 654 10 m 514 556 l 638 556 l 638 432 l 514 432 l 514 556 z "},"O":{"ha":1264,"x_min":76,"x_max":1188,"o":"m 781 150 l 781 275 l 906 275 l 906 150 l 781 150 m 76 572 l 76 697 l 201 697 l 201 572 l 76 572 m 483 275 l 483 150 l 358 150 l 358 275 l 483 275 m 358 854 l 358 979 l 483 979 l 483 854 l 358 854 m 906 979 l 906 854 l 781 854 l 781 979 l 906 979 m 1063 572 l 1063 697 l 1188 697 l 1188 572 l 1063 572 m 1046 697 l 1046 572 l 922 572 l 922 697 l 1046 697 m 781 714 l 781 838 l 906 838 l 906 714 l 781 714 m 1046 275 l 1046 150 l 922 150 l 922 275 l 1046 275 m 781 133 l 906 133 l 906 10 l 781 10 l 781 133 m 1063 415 l 1188 415 l 1188 292 l 1063 292 l 1063 415 m 76 432 l 76 556 l 201 556 l 201 432 l 76 432 m 201 415 l 201 292 l 76 292 l 76 415 l 201 415 m 500 979 l 624 979 l 624 854 l 500 854 l 500 979 m 1188 556 l 1188 432 l 1063 432 l 1063 556 l 1188 556 m 358 10 l 358 133 l 483 133 l 483 10 l 358 10 m 764 979 l 764 854 l 640 854 l 640 979 l 764 979 m 218 697 l 342 697 l 342 572 l 218 572 l 218 697 m 358 838 l 483 838 l 483 714 l 358 714 l 358 838 m 342 275 l 342 150 l 218 150 l 218 275 l 342 275 m 922 838 l 1046 838 l 1046 714 l 922 714 l 922 838 m 922 415 l 1046 415 l 1046 292 l 922 292 l 922 415 m 922 556 l 1046 556 l 1046 432 l 922 432 l 922 556 m 218 415 l 342 415 l 342 292 l 218 292 l 218 415 m 342 838 l 342 714 l 218 714 l 218 838 l 342 838 m 342 556 l 342 432 l 218 432 l 218 556 l 342 556 m 640 10 l 640 133 l 764 133 l 764 10 l 640 10 m 500 133 l 624 133 l 624 10 l 500 10 l 500 133 z "},"P":{"ha":989,"x_min":76,"x_max":906,"o":"m 781 572 l 781 697 l 906 697 l 906 572 l 781 572 m 76 979 l 201 979 l 201 854 l 76 854 l 76 979 m 76 275 l 201 275 l 201 150 l 76 150 l 76 275 m 201 697 l 201 572 l 76 572 l 76 697 l 201 697 m 358 854 l 358 979 l 483 979 l 483 854 l 358 854 m 781 838 l 906 838 l 906 714 l 781 714 l 781 838 m 640 697 l 764 697 l 764 572 l 640 572 l 640 697 m 201 838 l 201 714 l 76 714 l 76 838 l 201 838 m 483 556 l 483 432 l 358 432 l 358 556 l 483 556 m 624 979 l 624 854 l 500 854 l 500 979 l 624 979 m 764 979 l 764 854 l 640 854 l 640 979 l 764 979 m 218 854 l 218 979 l 342 979 l 342 854 l 218 854 m 218 697 l 342 697 l 342 572 l 218 572 l 218 697 m 76 10 l 76 133 l 201 133 l 201 10 l 76 10 m 76 415 l 201 415 l 201 292 l 76 292 l 76 415 m 76 556 l 201 556 l 201 432 l 76 432 l 76 556 m 218 275 l 342 275 l 342 150 l 218 150 l 218 275 m 640 838 l 764 838 l 764 714 l 640 714 l 640 838 m 640 432 l 640 556 l 764 556 l 764 432 l 640 432 m 624 556 l 624 432 l 500 432 l 500 556 l 624 556 m 218 10 l 218 133 l 342 133 l 342 10 l 218 10 m 218 292 l 218 415 l 342 415 l 342 292 l 218 292 m 218 838 l 342 838 l 342 714 l 218 714 l 218 838 m 218 432 l 218 556 l 342 556 l 342 432 l 218 432 z "},"Q":{"ha":1271,"x_min":76,"x_max":1188,"o":"m 781 275 l 906 275 l 906 150 l 781 150 l 781 275 m 1063 -7 l 1188 -7 l 1188 -132 l 1063 -132 l 1063 -7 m 483 275 l 483 150 l 358 150 l 358 275 l 483 275 m 1063 697 l 1188 697 l 1188 572 l 1063 572 l 1063 697 m 201 697 l 201 572 l 76 572 l 76 697 l 201 697 m 358 854 l 358 979 l 483 979 l 483 854 l 358 854 m 781 -7 l 906 -7 l 906 -132 l 781 -132 l 781 -7 m 781 979 l 906 979 l 906 854 l 781 854 l 781 979 m 781 838 l 906 838 l 906 714 l 781 714 l 781 838 m 342 275 l 342 150 l 218 150 l 218 275 l 342 275 m 218 572 l 218 697 l 342 697 l 342 572 l 218 572 m 922 275 l 1046 275 l 1046 150 l 922 150 l 922 275 m 922 -132 l 922 -7 l 1046 -7 l 1046 -132 l 922 -132 m 922 697 l 1046 697 l 1046 572 l 922 572 l 922 697 m 640 979 l 764 979 l 764 854 l 640 854 l 640 979 m 781 10 l 781 133 l 906 133 l 906 10 l 781 10 m 1063 556 l 1188 556 l 1188 432 l 1063 432 l 1063 556 m 1063 415 l 1188 415 l 1188 292 l 1063 292 l 1063 415 m 358 714 l 358 838 l 483 838 l 483 714 l 358 714 m 500 979 l 624 979 l 624 854 l 500 854 l 500 979 m 76 432 l 76 556 l 201 556 l 201 432 l 76 432 m 76 415 l 201 415 l 201 292 l 76 292 l 76 415 m 358 10 l 358 133 l 483 133 l 483 10 l 358 10 m 922 432 l 922 556 l 1046 556 l 1046 432 l 922 432 m 1046 838 l 1046 714 l 922 714 l 922 838 l 1046 838 m 922 415 l 1046 415 l 1046 292 l 922 292 l 922 415 m 342 415 l 342 292 l 218 292 l 218 415 l 342 415 m 342 556 l 342 432 l 218 432 l 218 556 l 342 556 m 342 838 l 342 714 l 218 714 l 218 838 l 342 838 m 640 133 l 764 133 l 764 10 l 640 10 l 640 133 m 624 133 l 624 10 l 500 10 l 500 133 l 624 133 z "},"R":{"ha":1118,"x_min":76,"x_max":1046,"o":"m 781 150 l 781 275 l 906 275 l 906 150 l 781 150 m 483 979 l 483 854 l 358 854 l 358 979 l 483 979 m 76 979 l 201 979 l 201 854 l 76 854 l 76 979 m 201 697 l 201 572 l 76 572 l 76 697 l 201 697 m 201 275 l 201 150 l 76 150 l 76 275 l 201 275 m 781 572 l 781 697 l 906 697 l 906 572 l 781 572 m 906 838 l 906 714 l 781 714 l 781 838 l 906 838 m 640 697 l 764 697 l 764 572 l 640 572 l 640 697 m 921 133 l 1046 133 l 1046 10 l 921 10 l 921 133 m 201 838 l 201 714 l 76 714 l 76 838 l 201 838 m 201 133 l 201 10 l 76 10 l 76 133 l 201 133 m 640 150 l 640 275 l 764 275 l 764 150 l 640 150 m 781 10 l 781 133 l 906 133 l 906 10 l 781 10 m 640 854 l 640 979 l 764 979 l 764 854 l 640 854 m 218 275 l 342 275 l 342 150 l 218 150 l 218 275 m 500 854 l 500 979 l 624 979 l 624 854 l 500 854 m 358 556 l 483 556 l 483 432 l 358 432 l 358 556 m 342 697 l 342 572 l 218 572 l 218 697 l 342 697 m 201 415 l 201 292 l 76 292 l 76 415 l 201 415 m 218 854 l 218 979 l 342 979 l 342 854 l 218 854 m 76 556 l 201 556 l 201 432 l 76 432 l 76 556 m 764 133 l 764 10 l 640 10 l 640 133 l 764 133 m 640 556 l 764 556 l 764 432 l 640 432 l 640 556 m 764 838 l 764 714 l 640 714 l 640 838 l 764 838 m 624 556 l 624 432 l 500 432 l 500 556 l 624 556 m 764 415 l 764 292 l 640 292 l 640 415 l 764 415 m 218 838 l 342 838 l 342 714 l 218 714 l 218 838 m 218 432 l 218 556 l 342 556 l 342 432 l 218 432 m 218 292 l 218 415 l 342 415 l 342 292 l 218 292 m 624 415 l 624 292 l 500 292 l 500 415 l 624 415 m 218 133 l 342 133 l 342 10 l 218 10 l 218 133 z "},"S":{"ha":840,"x_min":76,"x_max":764,"o":"m 358 979 l 483 979 l 483 854 l 358 854 l 358 979 m 76 572 l 76 697 l 201 697 l 201 572 l 76 572 m 358 572 l 358 697 l 483 697 l 483 572 l 358 572 m 76 10 l 76 133 l 201 133 l 201 10 l 76 10 m 640 979 l 764 979 l 764 854 l 640 854 l 640 979 m 500 854 l 500 979 l 624 979 l 624 854 l 500 854 m 76 838 l 201 838 l 201 714 l 76 714 l 76 838 m 500 150 l 500 275 l 624 275 l 624 150 l 500 150 m 218 854 l 218 979 l 342 979 l 342 854 l 218 854 m 218 697 l 342 697 l 342 572 l 218 572 l 218 697 m 640 275 l 764 275 l 764 150 l 640 150 l 640 275 m 358 556 l 483 556 l 483 432 l 358 432 l 358 556 m 358 10 l 358 133 l 483 133 l 483 10 l 358 10 m 640 415 l 764 415 l 764 292 l 640 292 l 640 415 m 500 556 l 624 556 l 624 432 l 500 432 l 500 556 m 624 415 l 624 292 l 500 292 l 500 415 l 624 415 m 218 432 l 218 556 l 342 556 l 342 432 l 218 432 m 218 838 l 342 838 l 342 714 l 218 714 l 218 838 m 218 133 l 342 133 l 342 10 l 218 10 l 218 133 m 500 133 l 624 133 l 624 10 l 500 10 l 500 133 m 482 415 l 482 292 l 358 292 l 358 415 l 482 415 z "},"T":{"ha":974,"x_min":76,"x_max":903,"o":"m 76 854 l 76 979 l 201 979 l 201 854 l 76 854 m 358 275 l 483 275 l 483 150 l 358 150 l 358 275 m 358 697 l 483 697 l 483 572 l 358 572 l 358 697 m 358 979 l 483 979 l 483 854 l 358 854 l 358 979 m 500 572 l 500 697 l 624 697 l 624 572 l 500 572 m 624 979 l 624 854 l 500 854 l 500 979 l 624 979 m 500 150 l 500 275 l 624 275 l 624 150 l 500 150 m 218 854 l 218 979 l 342 979 l 342 854 l 218 854 m 764 979 l 764 854 l 640 854 l 640 979 l 764 979 m 358 10 l 358 133 l 483 133 l 483 10 l 358 10 m 358 415 l 483 415 l 483 292 l 358 292 l 358 415 m 358 556 l 483 556 l 483 432 l 358 432 l 358 556 m 483 838 l 483 714 l 358 714 l 358 838 l 483 838 m 779 979 l 903 979 l 903 854 l 779 854 l 779 979 m 500 838 l 624 838 l 624 714 l 500 714 l 500 838 m 500 432 l 500 556 l 624 556 l 624 432 l 500 432 m 624 415 l 624 292 l 500 292 l 500 415 l 624 415 m 500 133 l 624 133 l 624 10 l 500 10 l 500 133 z "},"U":{"ha":978,"x_min":76,"x_max":906,"o":"m 201 697 l 201 572 l 76 572 l 76 697 l 201 697 m 358 150 l 358 275 l 483 275 l 483 150 l 358 150 m 201 979 l 201 854 l 76 854 l 76 979 l 201 979 m 781 979 l 906 979 l 906 854 l 781 854 l 781 979 m 781 697 l 906 697 l 906 572 l 781 572 l 781 697 m 201 275 l 201 150 l 76 150 l 76 275 l 201 275 m 781 275 l 906 275 l 906 150 l 781 150 l 781 275 m 781 838 l 906 838 l 906 714 l 781 714 l 781 838 m 781 556 l 906 556 l 906 432 l 781 432 l 781 556 m 358 133 l 483 133 l 483 10 l 358 10 l 358 133 m 201 415 l 201 292 l 76 292 l 76 415 l 201 415 m 906 415 l 906 292 l 781 292 l 781 415 l 906 415 m 640 150 l 640 275 l 764 275 l 764 150 l 640 150 m 201 556 l 201 432 l 76 432 l 76 556 l 201 556 m 218 697 l 342 697 l 342 572 l 218 572 l 218 697 m 218 979 l 342 979 l 342 854 l 218 854 l 218 979 m 201 838 l 201 714 l 76 714 l 76 838 l 201 838 m 218 275 l 342 275 l 342 150 l 218 150 l 218 275 m 624 133 l 624 10 l 500 10 l 500 133 l 624 133 m 640 10 l 640 133 l 764 133 l 764 10 l 640 10 m 218 838 l 342 838 l 342 714 l 218 714 l 218 838 m 342 415 l 342 292 l 218 292 l 218 415 l 342 415 m 218 10 l 218 133 l 342 133 l 342 10 l 218 10 m 218 556 l 342 556 l 342 432 l 218 432 l 218 556 z "},"V":{"ha":1115,"x_min":69,"x_max":1039,"o":"m 69 854 l 69 979 l 194 979 l 194 854 l 69 854 m 476 275 l 476 150 l 351 150 l 351 275 l 476 275 m 774 697 l 899 697 l 899 572 l 774 572 l 774 697 m 899 979 l 899 854 l 774 854 l 774 979 l 899 979 m 351 572 l 351 697 l 476 697 l 476 572 l 351 572 m 335 979 l 335 854 l 211 854 l 211 979 l 335 979 m 194 838 l 194 714 l 69 714 l 69 838 l 194 838 m 774 838 l 899 838 l 899 714 l 774 714 l 774 838 m 915 979 l 1039 979 l 1039 854 l 915 854 l 915 979 m 757 275 l 757 150 l 633 150 l 633 275 l 757 275 m 774 556 l 899 556 l 899 432 l 774 432 l 774 556 m 351 415 l 476 415 l 476 292 l 351 292 l 351 415 m 335 697 l 335 572 l 211 572 l 211 697 l 335 697 m 351 10 l 351 133 l 476 133 l 476 10 l 351 10 m 351 432 l 351 556 l 476 556 l 476 432 l 351 432 m 493 150 l 493 275 l 617 275 l 617 150 l 493 150 m 915 838 l 1039 838 l 1039 714 l 915 714 l 915 838 m 633 556 l 757 556 l 757 432 l 633 432 l 633 556 m 633 10 l 633 133 l 757 133 l 757 10 l 633 10 m 211 556 l 335 556 l 335 432 l 211 432 l 211 556 m 335 838 l 335 714 l 211 714 l 211 838 l 335 838 m 211 292 l 211 415 l 335 415 l 335 292 l 211 292 m 633 292 l 633 415 l 757 415 l 757 292 l 633 292 m 617 133 l 617 10 l 493 10 l 493 133 l 617 133 z "},"W":{"ha":1544,"x_min":76,"x_max":1472,"o":"m 483 275 l 483 150 l 358 150 l 358 275 l 483 275 m 1188 275 l 1188 150 l 1063 150 l 1063 275 l 1188 275 m 781 697 l 906 697 l 906 572 l 781 572 l 781 697 m 1204 854 l 1204 979 l 1329 979 l 1329 854 l 1204 854 m 1204 697 l 1329 697 l 1329 572 l 1204 572 l 1204 697 m 1347 979 l 1472 979 l 1472 854 l 1347 854 l 1347 979 m 201 979 l 201 854 l 76 854 l 76 979 l 201 979 m 781 854 l 781 979 l 906 979 l 906 854 l 781 854 m 483 697 l 483 572 l 358 572 l 358 697 l 483 697 m 1063 697 l 1188 697 l 1188 572 l 1063 572 l 1063 697 m 1046 275 l 1046 150 l 922 150 l 922 275 l 1046 275 m 218 979 l 342 979 l 342 854 l 218 854 l 218 979 m 1188 133 l 1188 10 l 1063 10 l 1063 133 l 1188 133 m 1188 556 l 1188 432 l 1063 432 l 1063 556 l 1188 556 m 781 838 l 906 838 l 906 714 l 781 714 l 781 838 m 342 697 l 342 572 l 218 572 l 218 697 l 342 697 m 906 415 l 906 292 l 781 292 l 781 415 l 906 415 m 781 556 l 906 556 l 906 432 l 781 432 l 781 556 m 201 838 l 201 714 l 76 714 l 76 838 l 201 838 m 1063 415 l 1188 415 l 1188 292 l 1063 292 l 1063 415 m 640 572 l 640 697 l 764 697 l 764 572 l 640 572 m 1204 838 l 1329 838 l 1329 714 l 1204 714 l 1204 838 m 483 556 l 483 432 l 358 432 l 358 556 l 483 556 m 624 275 l 624 150 l 500 150 l 500 275 l 624 275 m 640 979 l 764 979 l 764 854 l 640 854 l 640 979 m 1204 556 l 1329 556 l 1329 432 l 1204 432 l 1204 556 m 483 415 l 483 292 l 358 292 l 358 415 l 483 415 m 483 133 l 483 10 l 358 10 l 358 133 l 483 133 m 640 838 l 764 838 l 764 714 l 640 714 l 640 838 m 1046 415 l 1046 292 l 922 292 l 922 415 l 1046 415 m 1046 133 l 1046 10 l 922 10 l 922 133 l 1046 133 m 500 415 l 624 415 l 624 292 l 500 292 l 500 415 m 342 556 l 342 432 l 218 432 l 218 556 l 342 556 m 640 432 l 640 556 l 764 556 l 764 432 l 640 432 m 218 292 l 218 415 l 342 415 l 342 292 l 218 292 m 624 133 l 624 10 l 500 10 l 500 133 l 624 133 m 342 838 l 342 714 l 218 714 l 218 838 l 342 838 z "},"X":{"ha":993,"x_min":76,"x_max":906,"o":"m 781 854 l 781 979 l 906 979 l 906 854 l 781 854 m 201 275 l 201 150 l 76 150 l 76 275 l 201 275 m 358 697 l 483 697 l 483 572 l 358 572 l 358 697 m 781 275 l 906 275 l 906 150 l 781 150 l 781 275 m 201 979 l 201 854 l 76 854 l 76 979 l 201 979 m 764 275 l 764 150 l 640 150 l 640 275 l 764 275 m 781 838 l 906 838 l 906 714 l 781 714 l 781 838 m 201 838 l 201 714 l 76 714 l 76 838 l 201 838 m 201 133 l 201 10 l 76 10 l 76 133 l 201 133 m 500 697 l 624 697 l 624 572 l 500 572 l 500 697 m 781 10 l 781 133 l 906 133 l 906 10 l 781 10 m 764 697 l 764 572 l 640 572 l 640 697 l 764 697 m 483 556 l 483 432 l 358 432 l 358 556 l 483 556 m 358 415 l 483 415 l 483 292 l 358 292 l 358 415 m 218 150 l 218 275 l 342 275 l 342 150 l 218 150 m 500 275 l 624 275 l 624 150 l 500 150 l 500 275 m 358 714 l 358 838 l 483 838 l 483 714 l 358 714 m 218 979 l 342 979 l 342 854 l 218 854 l 218 979 m 218 572 l 218 697 l 342 697 l 342 572 l 218 572 m 218 292 l 218 415 l 342 415 l 342 292 l 218 292 m 764 838 l 764 714 l 640 714 l 640 838 l 764 838 m 640 10 l 640 133 l 764 133 l 764 10 l 640 10 m 764 415 l 764 292 l 640 292 l 640 415 l 764 415 m 500 415 l 624 415 l 624 292 l 500 292 l 500 415 m 500 556 l 624 556 l 624 432 l 500 432 l 500 556 m 218 838 l 342 838 l 342 714 l 218 714 l 218 838 z "},"Y":{"ha":985,"x_min":76,"x_max":906,"o":"m 781 979 l 906 979 l 906 854 l 781 854 l 781 979 m 483 275 l 483 150 l 358 150 l 358 275 l 483 275 m 781 697 l 906 697 l 906 572 l 781 572 l 781 697 m 201 979 l 201 854 l 76 854 l 76 979 l 201 979 m 201 697 l 201 572 l 76 572 l 76 697 l 201 697 m 781 838 l 906 838 l 906 714 l 781 714 l 781 838 m 218 854 l 218 979 l 342 979 l 342 854 l 218 854 m 201 838 l 201 714 l 76 714 l 76 838 l 201 838 m 640 854 l 640 979 l 764 979 l 764 854 l 640 854 m 640 697 l 764 697 l 764 572 l 640 572 l 640 697 m 483 415 l 483 292 l 358 292 l 358 415 l 483 415 m 483 556 l 483 432 l 358 432 l 358 556 l 483 556 m 500 275 l 624 275 l 624 150 l 500 150 l 500 275 m 483 133 l 483 10 l 358 10 l 358 133 l 483 133 m 342 697 l 342 572 l 218 572 l 218 697 l 342 697 m 640 838 l 764 838 l 764 714 l 640 714 l 640 838 m 640 556 l 764 556 l 764 432 l 640 432 l 640 556 m 500 556 l 624 556 l 624 432 l 500 432 l 500 556 m 218 714 l 218 838 l 342 838 l 342 714 l 218 714 m 500 133 l 624 133 l 624 10 l 500 10 l 500 133 m 624 415 l 624 292 l 500 292 l 500 415 l 624 415 m 218 432 l 218 556 l 342 556 l 342 432 l 218 432 z "},"Z":{"ha":989,"x_min":76,"x_max":906,"o":"m 781 979 l 906 979 l 906 854 l 781 854 l 781 979 m 358 697 l 483 697 l 483 572 l 358 572 l 358 697 m 201 979 l 201 854 l 76 854 l 76 979 l 201 979 m 76 150 l 76 275 l 201 275 l 201 150 l 76 150 m 358 854 l 358 979 l 483 979 l 483 854 l 358 854 m 500 572 l 500 697 l 624 697 l 624 572 l 500 572 m 906 838 l 906 714 l 781 714 l 781 838 l 906 838 m 76 415 l 201 415 l 201 292 l 76 292 l 76 415 m 201 133 l 201 10 l 76 10 l 76 133 l 201 133 m 781 133 l 906 133 l 906 10 l 781 10 l 781 133 m 640 979 l 764 979 l 764 854 l 640 854 l 640 979 m 640 572 l 640 697 l 764 697 l 764 572 l 640 572 m 358 292 l 358 415 l 483 415 l 483 292 l 358 292 m 218 979 l 342 979 l 342 854 l 218 854 l 218 979 m 218 275 l 342 275 l 342 150 l 218 150 l 218 275 m 358 10 l 358 133 l 483 133 l 483 10 l 358 10 m 358 556 l 483 556 l 483 432 l 358 432 l 358 556 m 624 979 l 624 854 l 500 854 l 500 979 l 624 979 m 640 838 l 764 838 l 764 714 l 640 714 l 640 838 m 764 133 l 764 10 l 640 10 l 640 133 l 764 133 m 624 556 l 624 432 l 500 432 l 500 556 l 624 556 m 218 415 l 342 415 l 342 292 l 218 292 l 218 415 m 218 432 l 218 556 l 342 556 l 342 432 l 218 432 m 218 10 l 218 133 l 342 133 l 342 10 l 218 10 m 500 10 l 500 133 l 624 133 l 624 10 l 500 10 m 624 838 l 624 714 l 500 714 l 500 838 l 624 838 z "},"[":{"ha":563,"x_min":76,"x_max":483,"o":"m 76 275 l 201 275 l 201 150 l 76 150 l 76 275 m 76 -7 l 201 -7 l 201 -132 l 76 -132 l 76 -7 m 76 979 l 201 979 l 201 854 l 76 854 l 76 979 m 76 572 l 76 697 l 201 697 l 201 572 l 76 572 m 358 -132 l 358 -7 l 483 -7 l 483 -132 l 358 -132 m 358 854 l 358 979 l 483 979 l 483 854 l 358 854 m 218 572 l 218 697 l 342 697 l 342 572 l 218 572 m 76 714 l 76 838 l 201 838 l 201 714 l 76 714 m 218 -7 l 342 -7 l 342 -132 l 218 -132 l 218 -7 m 76 556 l 201 556 l 201 432 l 76 432 l 76 556 m 218 275 l 342 275 l 342 150 l 218 150 l 218 275 m 76 133 l 201 133 l 201 10 l 76 10 l 76 133 m 76 415 l 201 415 l 201 292 l 76 292 l 76 415 m 218 854 l 218 979 l 342 979 l 342 854 l 218 854 m 342 556 l 342 432 l 218 432 l 218 556 l 342 556 m 218 415 l 342 415 l 342 292 l 218 292 l 218 415 m 342 838 l 342 714 l 218 714 l 218 838 l 342 838 m 218 133 l 342 133 l 342 10 l 218 10 l 218 133 z "},"\\":{"ha":1292,"x_min":90,"x_max":778,"o":"m 90 979 l 215 979 l 215 854 l 90 854 l 90 979 m 372 572 l 372 697 l 497 697 l 497 572 l 372 572 m 638 275 l 638 150 l 514 150 l 514 275 l 638 275 m 90 714 l 90 838 l 215 838 l 215 714 l 90 714 m 778 275 l 778 150 l 654 150 l 654 275 l 778 275 m 356 697 l 356 572 l 232 572 l 232 697 l 356 697 m 232 979 l 356 979 l 356 854 l 232 854 l 232 979 m 497 415 l 497 292 l 372 292 l 372 415 l 497 415 m 372 432 l 372 556 l 497 556 l 497 432 l 372 432 m 514 432 l 514 556 l 638 556 l 638 432 l 514 432 m 356 838 l 356 714 l 232 714 l 232 838 l 356 838 m 654 10 l 654 133 l 778 133 l 778 10 l 654 10 m 514 292 l 514 415 l 638 415 l 638 292 l 514 292 m 514 10 l 514 133 l 638 133 l 638 10 l 514 10 z "},"]":{"ha":572,"x_min":76,"x_max":483,"o":"m 358 854 l 358 979 l 483 979 l 483 854 l 358 854 m 358 -132 l 358 -7 l 483 -7 l 483 -132 l 358 -132 m 358 697 l 483 697 l 483 572 l 358 572 l 358 697 m 76 -7 l 201 -7 l 201 -132 l 76 -132 l 76 -7 m 358 150 l 358 275 l 483 275 l 483 150 l 358 150 m 201 979 l 201 854 l 76 854 l 76 979 l 201 979 m 358 838 l 483 838 l 483 714 l 358 714 l 358 838 m 358 10 l 358 133 l 483 133 l 483 10 l 358 10 m 218 697 l 342 697 l 342 572 l 218 572 l 218 697 m 483 415 l 483 292 l 358 292 l 358 415 l 483 415 m 218 -7 l 342 -7 l 342 -132 l 218 -132 l 218 -7 m 218 275 l 342 275 l 342 150 l 218 150 l 218 275 m 218 979 l 342 979 l 342 854 l 218 854 l 218 979 m 358 432 l 358 556 l 483 556 l 483 432 l 358 432 m 218 838 l 342 838 l 342 714 l 218 714 l 218 838 m 218 415 l 342 415 l 342 292 l 218 292 l 218 415 m 218 133 l 342 133 l 342 10 l 218 10 l 218 133 m 218 556 l 342 556 l 342 432 l 218 432 l 218 556 z "},"^":{"ha":554,"x_min":78,"x_max":485,"o":"m 485 1113 l 485 989 l 360 989 l 360 1113 l 485 1113 m 219 1129 l 219 1254 l 343 1254 l 343 1129 l 219 1129 m 78 1113 l 203 1113 l 203 989 l 78 989 l 78 1113 z "},"_":{"ha":840,"x_min":76,"x_max":764,"o":"m 76 -271 l 76 -146 l 201 -146 l 201 -271 l 76 -271 m 358 -146 l 483 -146 l 483 -271 l 358 -271 l 358 -146 m 500 -271 l 500 -146 l 624 -146 l 624 -271 l 500 -271 m 764 -146 l 764 -271 l 640 -271 l 640 -146 l 764 -146 m 218 -271 l 218 -146 l 342 -146 l 342 -271 l 218 -271 z "},"`":{"ha":569,"x_min":90,"x_max":497,"o":"m 90 1119 l 215 1119 l 215 994 l 90 994 l 90 1119 m 372 978 l 497 978 l 497 854 l 372 854 l 372 978 m 232 994 l 232 1119 l 356 1119 l 356 994 l 232 994 z "},"a":{"ha":822,"x_min":64,"x_max":751,"o":"m 189 275 l 189 150 l 64 150 l 64 275 l 189 275 m 346 572 l 346 697 l 471 697 l 471 572 l 346 572 m 471 133 l 471 10 l 346 10 l 346 133 l 471 133 m 471 415 l 471 292 l 346 292 l 346 415 l 471 415 m 488 572 l 488 697 l 611 697 l 611 572 l 488 572 m 628 150 l 628 275 l 751 275 l 751 150 l 628 150 m 206 150 l 206 275 l 329 275 l 329 150 l 206 150 m 488 150 l 488 275 l 611 275 l 611 150 l 488 150 m 206 697 l 329 697 l 329 572 l 206 572 l 206 697 m 628 556 l 751 556 l 751 432 l 628 432 l 628 556 m 751 415 l 751 292 l 628 292 l 628 415 l 751 415 m 628 10 l 628 133 l 751 133 l 751 10 l 628 10 m 611 415 l 611 292 l 488 292 l 488 415 l 611 415 m 206 10 l 206 133 l 329 133 l 329 10 l 206 10 m 206 292 l 206 415 l 329 415 l 329 292 l 206 292 m 488 556 l 611 556 l 611 432 l 488 432 l 488 556 m 611 133 l 611 10 l 488 10 l 488 133 l 611 133 z "},"b":{"ha":872,"x_min":90,"x_max":778,"o":"m 90 275 l 215 275 l 215 150 l 90 150 l 90 275 m 497 697 l 497 572 l 372 572 l 372 697 l 497 697 m 90 854 l 90 979 l 215 979 l 215 854 l 90 854 m 90 572 l 90 697 l 215 697 l 215 572 l 90 572 m 514 150 l 514 275 l 638 275 l 638 150 l 514 150 m 514 697 l 638 697 l 638 572 l 514 572 l 514 697 m 90 133 l 215 133 l 215 10 l 90 10 l 90 133 m 232 854 l 232 979 l 356 979 l 356 854 l 232 854 m 90 838 l 215 838 l 215 714 l 90 714 l 90 838 m 778 275 l 778 150 l 654 150 l 654 275 l 778 275 m 356 697 l 356 572 l 232 572 l 232 697 l 356 697 m 232 150 l 232 275 l 356 275 l 356 150 l 232 150 m 497 133 l 497 10 l 372 10 l 372 133 l 497 133 m 90 415 l 215 415 l 215 292 l 90 292 l 90 415 m 90 432 l 90 556 l 215 556 l 215 432 l 90 432 m 638 556 l 638 432 l 514 432 l 514 556 l 638 556 m 654 292 l 654 415 l 778 415 l 778 292 l 654 292 m 654 556 l 778 556 l 778 432 l 654 432 l 654 556 m 232 10 l 232 133 l 356 133 l 356 10 l 232 10 m 514 10 l 514 133 l 638 133 l 638 10 l 514 10 m 232 432 l 232 556 l 356 556 l 356 432 l 232 432 m 232 292 l 232 415 l 356 415 l 356 292 l 232 292 m 514 292 l 514 415 l 638 415 l 638 292 l 514 292 m 356 838 l 356 714 l 232 714 l 232 838 l 356 838 z "},"c":{"ha":676,"x_min":64,"x_max":611,"o":"m 471 697 l 471 572 l 346 572 l 346 697 l 471 697 m 64 275 l 189 275 l 189 150 l 64 150 l 64 275 m 346 10 l 346 133 l 471 133 l 471 10 l 346 10 m 329 697 l 329 572 l 206 572 l 206 697 l 329 697 m 64 415 l 189 415 l 189 292 l 64 292 l 64 415 m 611 697 l 611 572 l 488 572 l 488 697 l 611 697 m 206 150 l 206 275 l 329 275 l 329 150 l 206 150 m 64 556 l 189 556 l 189 432 l 64 432 l 64 556 m 206 292 l 206 415 l 329 415 l 329 292 l 206 292 m 611 133 l 611 10 l 488 10 l 488 133 l 611 133 m 206 10 l 206 133 l 329 133 l 329 10 l 206 10 m 329 556 l 329 432 l 206 432 l 206 556 l 329 556 z "},"d":{"ha":844,"x_min":64,"x_max":751,"o":"m 471 697 l 471 572 l 346 572 l 346 697 l 471 697 m 189 275 l 189 150 l 64 150 l 64 275 l 189 275 m 64 292 l 64 415 l 189 415 l 189 292 l 64 292 m 488 697 l 611 697 l 611 572 l 488 572 l 488 697 m 751 275 l 751 150 l 628 150 l 628 275 l 751 275 m 206 572 l 206 697 l 329 697 l 329 572 l 206 572 m 64 432 l 64 556 l 189 556 l 189 432 l 64 432 m 628 697 l 751 697 l 751 572 l 628 572 l 628 697 m 206 150 l 206 275 l 329 275 l 329 150 l 206 150 m 346 133 l 471 133 l 471 10 l 346 10 l 346 133 m 628 854 l 628 979 l 751 979 l 751 854 l 628 854 m 488 150 l 488 275 l 611 275 l 611 150 l 488 150 m 611 979 l 611 854 l 488 854 l 488 979 l 611 979 m 611 556 l 611 432 l 488 432 l 488 556 l 611 556 m 206 292 l 206 415 l 329 415 l 329 292 l 206 292 m 628 415 l 751 415 l 751 292 l 628 292 l 628 415 m 628 556 l 751 556 l 751 432 l 628 432 l 628 556 m 628 838 l 751 838 l 751 714 l 628 714 l 628 838 m 628 10 l 628 133 l 751 133 l 751 10 l 628 10 m 206 432 l 206 556 l 329 556 l 329 432 l 206 432 m 488 714 l 488 838 l 611 838 l 611 714 l 488 714 m 488 292 l 488 415 l 611 415 l 611 292 l 488 292 m 611 133 l 611 10 l 488 10 l 488 133 l 611 133 m 206 10 l 206 133 l 329 133 l 329 10 l 206 10 z "},"e":{"ha":838,"x_min":75,"x_max":763,"o":"m 75 275 l 200 275 l 200 150 l 75 150 l 75 275 m 482 697 l 482 572 l 357 572 l 357 697 l 482 697 m 622 697 l 622 572 l 499 572 l 499 697 l 622 697 m 75 556 l 200 556 l 200 432 l 75 432 l 75 556 m 200 415 l 200 292 l 75 292 l 75 415 l 200 415 m 357 10 l 357 133 l 482 133 l 482 10 l 357 10 m 482 415 l 482 292 l 357 292 l 357 415 l 482 415 m 217 572 l 217 697 l 340 697 l 340 572 l 217 572 m 217 275 l 340 275 l 340 150 l 217 150 l 217 275 m 763 415 l 763 292 l 639 292 l 639 415 l 763 415 m 639 133 l 763 133 l 763 10 l 639 10 l 639 133 m 622 133 l 622 10 l 499 10 l 499 133 l 622 133 m 639 432 l 639 556 l 763 556 l 763 432 l 639 432 m 217 10 l 217 133 l 340 133 l 340 10 l 217 10 m 499 415 l 622 415 l 622 292 l 499 292 l 499 415 m 217 432 l 217 556 l 340 556 l 340 432 l 217 432 m 499 432 l 499 556 l 622 556 l 622 432 l 499 432 m 217 292 l 217 415 l 340 415 l 340 292 l 217 292 z "},"f":{"ha":538,"x_min":65,"x_max":471,"o":"m 331 697 l 331 572 l 206 572 l 206 697 l 331 697 m 206 854 l 206 979 l 331 979 l 331 854 l 206 854 m 331 275 l 331 150 l 206 150 l 206 275 l 331 275 m 347 697 l 471 697 l 471 572 l 347 572 l 347 697 m 347 979 l 471 979 l 471 854 l 347 854 l 347 979 m 206 10 l 206 133 l 331 133 l 331 10 l 206 10 m 206 838 l 331 838 l 331 714 l 206 714 l 206 838 m 65 275 l 189 275 l 189 150 l 65 150 l 65 275 m 206 292 l 206 415 l 331 415 l 331 292 l 206 292 m 206 432 l 206 556 l 331 556 l 331 432 l 206 432 m 65 697 l 189 697 l 189 572 l 65 572 l 65 697 m 65 415 l 189 415 l 189 292 l 65 292 l 65 415 m 189 556 l 189 432 l 65 432 l 65 556 l 189 556 m 65 714 l 65 838 l 189 838 l 189 714 l 65 714 m 65 133 l 189 133 l 189 10 l 65 10 l 65 133 z "},"g":{"ha":839,"x_min":64,"x_max":751,"o":"m 346 697 l 471 697 l 471 572 l 346 572 l 346 697 m 471 -150 l 471 -275 l 346 -275 l 346 -150 l 471 -150 m 64 275 l 189 275 l 189 150 l 64 150 l 64 275 m 206 150 l 206 275 l 329 275 l 329 150 l 206 150 m 64 432 l 64 556 l 189 556 l 189 432 l 64 432 m 628 697 l 751 697 l 751 572 l 628 572 l 628 697 m 628 275 l 751 275 l 751 150 l 628 150 l 628 275 m 488 697 l 611 697 l 611 572 l 488 572 l 488 697 m 64 415 l 189 415 l 189 292 l 64 292 l 64 415 m 628 -132 l 628 -7 l 751 -7 l 751 -132 l 628 -132 m 488 150 l 488 275 l 611 275 l 611 150 l 488 150 m 346 133 l 471 133 l 471 10 l 346 10 l 346 133 m 206 -275 l 206 -150 l 329 -150 l 329 -275 l 206 -275 m 488 -275 l 488 -150 l 611 -150 l 611 -275 l 488 -275 m 206 572 l 206 697 l 329 697 l 329 572 l 206 572 m 488 -132 l 488 -7 l 611 -7 l 611 -132 l 488 -132 m 628 556 l 751 556 l 751 432 l 628 432 l 628 556 m 628 415 l 751 415 l 751 292 l 628 292 l 628 415 m 628 133 l 751 133 l 751 10 l 628 10 l 628 133 m 611 133 l 611 10 l 488 10 l 488 133 l 611 133 m 488 415 l 611 415 l 611 292 l 488 292 l 488 415 m 206 432 l 206 556 l 329 556 l 329 432 l 206 432 m 206 10 l 206 133 l 329 133 l 329 10 l 206 10 m 488 556 l 611 556 l 611 432 l 488 432 l 488 556 m 206 292 l 206 415 l 329 415 l 329 292 l 206 292 z "},"h":{"ha":822,"x_min":64,"x_max":751,"o":"m 64 275 l 189 275 l 189 150 l 64 150 l 64 275 m 64 979 l 189 979 l 189 854 l 64 854 l 64 979 m 346 697 l 471 697 l 471 572 l 346 572 l 346 697 m 64 572 l 64 697 l 189 697 l 189 572 l 64 572 m 329 697 l 329 572 l 206 572 l 206 697 l 329 697 m 64 415 l 189 415 l 189 292 l 64 292 l 64 415 m 751 275 l 751 150 l 628 150 l 628 275 l 751 275 m 611 697 l 611 572 l 488 572 l 488 697 l 611 697 m 64 714 l 64 838 l 189 838 l 189 714 l 64 714 m 64 133 l 189 133 l 189 10 l 64 10 l 64 133 m 206 150 l 206 275 l 329 275 l 329 150 l 206 150 m 64 556 l 189 556 l 189 432 l 64 432 l 64 556 m 206 854 l 206 979 l 329 979 l 329 854 l 206 854 m 611 275 l 611 150 l 488 150 l 488 275 l 611 275 m 628 10 l 628 133 l 751 133 l 751 10 l 628 10 m 628 415 l 751 415 l 751 292 l 628 292 l 628 415 m 628 556 l 751 556 l 751 432 l 628 432 l 628 556 m 611 415 l 611 292 l 488 292 l 488 415 l 611 415 m 611 556 l 611 432 l 488 432 l 488 556 l 611 556 m 206 432 l 206 556 l 329 556 l 329 432 l 206 432 m 206 292 l 206 415 l 329 415 l 329 292 l 206 292 m 206 10 l 206 133 l 329 133 l 329 10 l 206 10 m 611 133 l 611 10 l 488 10 l 488 133 l 611 133 m 206 714 l 206 838 l 329 838 l 329 714 l 206 714 z "},"i":{"ha":410,"x_min":64,"x_max":329,"o":"m 64 150 l 64 275 l 189 275 l 189 150 l 64 150 m 64 572 l 64 697 l 189 697 l 189 572 l 64 572 m 64 854 l 64 979 l 189 979 l 189 854 l 64 854 m 64 133 l 189 133 l 189 10 l 64 10 l 64 133 m 64 556 l 189 556 l 189 432 l 64 432 l 64 556 m 64 292 l 64 415 l 189 415 l 189 292 l 64 292 m 206 854 l 206 979 l 329 979 l 329 854 l 206 854 m 206 697 l 329 697 l 329 572 l 206 572 l 206 697 m 206 150 l 206 275 l 329 275 l 329 150 l 206 150 m 206 432 l 206 556 l 329 556 l 329 432 l 206 432 m 206 10 l 206 133 l 329 133 l 329 10 l 206 10 m 206 292 l 206 415 l 329 415 l 329 292 l 206 292 z "},"j":{"ha":436,"x_min":-54,"x_max":353,"o":"m 228 275 l 353 275 l 353 150 l 228 150 l 228 275 m 228 -132 l 228 -7 l 353 -7 l 353 -132 l 228 -132 m -54 -150 l 71 -150 l 71 -275 l -54 -275 l -54 -150 m 228 697 l 353 697 l 353 572 l 228 572 l 228 697 m 228 979 l 353 979 l 353 854 l 228 854 l 228 979 m 88 275 l 211 275 l 211 150 l 88 150 l 88 275 m 88 -150 l 211 -150 l 211 -275 l 88 -275 l 88 -150 m 88 572 l 88 697 l 211 697 l 211 572 l 88 572 m 88 979 l 211 979 l 211 854 l 88 854 l 88 979 m 353 133 l 353 10 l 228 10 l 228 133 l 353 133 m 228 556 l 353 556 l 353 432 l 228 432 l 228 556 m 88 -7 l 211 -7 l 211 -132 l 88 -132 l 88 -7 m 228 415 l 353 415 l 353 292 l 228 292 l 228 415 m 88 432 l 88 556 l 211 556 l 211 432 l 88 432 m 88 415 l 211 415 l 211 292 l 88 292 l 88 415 m 88 133 l 211 133 l 211 10 l 88 10 l 88 133 z "},"k":{"ha":978,"x_min":64,"x_max":893,"o":"m 64 275 l 189 275 l 189 150 l 64 150 l 64 275 m 64 979 l 189 979 l 189 854 l 64 854 l 64 979 m 64 697 l 189 697 l 189 572 l 64 572 l 64 697 m 488 697 l 611 697 l 611 572 l 488 572 l 488 697 m 488 150 l 488 275 l 611 275 l 611 150 l 488 150 m 628 275 l 751 275 l 751 150 l 628 150 l 628 275 m 64 714 l 64 838 l 189 838 l 189 714 l 64 714 m 189 133 l 189 10 l 64 10 l 64 133 l 189 133 m 751 697 l 751 572 l 628 572 l 628 697 l 751 697 m 768 10 l 768 133 l 893 133 l 893 10 l 768 10 m 206 979 l 329 979 l 329 854 l 206 854 l 206 979 m 206 150 l 206 275 l 329 275 l 329 150 l 206 150 m 64 556 l 189 556 l 189 432 l 64 432 l 64 556 m 346 556 l 471 556 l 471 432 l 346 432 l 346 556 m 206 572 l 206 697 l 329 697 l 329 572 l 206 572 m 471 415 l 471 292 l 346 292 l 346 415 l 471 415 m 64 415 l 189 415 l 189 292 l 64 292 l 64 415 m 628 133 l 751 133 l 751 10 l 628 10 l 628 133 m 488 556 l 611 556 l 611 432 l 488 432 l 488 556 m 488 292 l 488 415 l 611 415 l 611 292 l 488 292 m 206 432 l 206 556 l 329 556 l 329 432 l 206 432 m 206 292 l 206 415 l 329 415 l 329 292 l 206 292 m 206 10 l 206 133 l 329 133 l 329 10 l 206 10 m 206 714 l 206 838 l 329 838 l 329 714 l 206 714 z "},"l":{"ha":415,"x_min":64,"x_max":329,"o":"m 64 275 l 189 275 l 189 150 l 64 150 l 64 275 m 64 697 l 189 697 l 189 572 l 64 572 l 64 697 m 64 979 l 189 979 l 189 854 l 64 854 l 64 979 m 64 714 l 64 838 l 189 838 l 189 714 l 64 714 m 206 854 l 206 979 l 329 979 l 329 854 l 206 854 m 206 150 l 206 275 l 329 275 l 329 150 l 206 150 m 329 697 l 329 572 l 206 572 l 206 697 l 329 697 m 64 133 l 189 133 l 189 10 l 64 10 l 64 133 m 64 432 l 64 556 l 189 556 l 189 432 l 64 432 m 64 292 l 64 415 l 189 415 l 189 292 l 64 292 m 329 556 l 329 432 l 206 432 l 206 556 l 329 556 m 206 10 l 206 133 l 329 133 l 329 10 l 206 10 m 206 292 l 206 415 l 329 415 l 329 292 l 206 292 m 206 838 l 329 838 l 329 714 l 206 714 l 206 838 z "},"m":{"ha":1256,"x_min":64,"x_max":1175,"o":"m 64 275 l 189 275 l 189 150 l 64 150 l 64 275 m 189 697 l 189 572 l 64 572 l 64 697 l 189 697 m 1050 275 l 1175 275 l 1175 150 l 1050 150 l 1050 275 m 768 697 l 893 697 l 893 572 l 768 572 l 768 697 m 471 697 l 471 572 l 346 572 l 346 697 l 471 697 m 628 697 l 751 697 l 751 572 l 628 572 l 628 697 m 64 415 l 189 415 l 189 292 l 64 292 l 64 415 m 628 150 l 628 275 l 751 275 l 751 150 l 628 150 m 189 133 l 189 10 l 64 10 l 64 133 l 189 133 m 1033 697 l 1033 572 l 910 572 l 910 697 l 1033 697 m 910 275 l 1033 275 l 1033 150 l 910 150 l 910 275 m 64 556 l 189 556 l 189 432 l 64 432 l 64 556 m 1175 556 l 1175 432 l 1050 432 l 1050 556 l 1175 556 m 206 275 l 329 275 l 329 150 l 206 150 l 206 275 m 1050 415 l 1175 415 l 1175 292 l 1050 292 l 1050 415 m 329 697 l 329 572 l 206 572 l 206 697 l 329 697 m 1050 133 l 1175 133 l 1175 10 l 1050 10 l 1050 133 m 611 275 l 611 150 l 488 150 l 488 275 l 611 275 m 628 432 l 628 556 l 751 556 l 751 432 l 628 432 m 910 133 l 1033 133 l 1033 10 l 910 10 l 910 133 m 910 292 l 910 415 l 1033 415 l 1033 292 l 910 292 m 1033 556 l 1033 432 l 910 432 l 910 556 l 1033 556 m 628 292 l 628 415 l 751 415 l 751 292 l 628 292 m 611 415 l 611 292 l 488 292 l 488 415 l 611 415 m 206 133 l 329 133 l 329 10 l 206 10 l 206 133 m 628 10 l 628 133 l 751 133 l 751 10 l 628 10 m 611 556 l 611 432 l 488 432 l 488 556 l 611 556 m 329 556 l 329 432 l 206 432 l 206 556 l 329 556 m 329 415 l 329 292 l 206 292 l 206 415 l 329 415 m 488 133 l 611 133 l 611 10 l 488 10 l 488 133 z "},"n":{"ha":835,"x_min":64,"x_max":751,"o":"m 64 275 l 189 275 l 189 150 l 64 150 l 64 275 m 471 697 l 471 572 l 346 572 l 346 697 l 471 697 m 64 697 l 189 697 l 189 572 l 64 572 l 64 697 m 488 572 l 488 697 l 611 697 l 611 572 l 488 572 m 488 150 l 488 275 l 611 275 l 611 150 l 488 150 m 64 133 l 189 133 l 189 10 l 64 10 l 64 133 m 628 150 l 628 275 l 751 275 l 751 150 l 628 150 m 206 150 l 206 275 l 329 275 l 329 150 l 206 150 m 64 556 l 189 556 l 189 432 l 64 432 l 64 556 m 64 415 l 189 415 l 189 292 l 64 292 l 64 415 m 206 697 l 329 697 l 329 572 l 206 572 l 206 697 m 628 432 l 628 556 l 751 556 l 751 432 l 628 432 m 628 292 l 628 415 l 751 415 l 751 292 l 628 292 m 628 10 l 628 133 l 751 133 l 751 10 l 628 10 m 206 292 l 206 415 l 329 415 l 329 292 l 206 292 m 488 10 l 488 133 l 611 133 l 611 10 l 488 10 m 611 415 l 611 292 l 488 292 l 488 415 l 611 415 m 206 10 l 206 133 l 329 133 l 329 10 l 206 10 m 488 556 l 611 556 l 611 432 l 488 432 l 488 556 m 206 432 l 206 556 l 329 556 l 329 432 l 206 432 z "},"o":{"ha":832,"x_min":64,"x_max":751,"o":"m 189 275 l 189 150 l 64 150 l 64 275 l 189 275 m 346 572 l 346 697 l 471 697 l 471 572 l 346 572 m 64 432 l 64 556 l 189 556 l 189 432 l 64 432 m 64 415 l 189 415 l 189 292 l 64 292 l 64 415 m 751 275 l 751 150 l 628 150 l 628 275 l 751 275 m 488 572 l 488 697 l 611 697 l 611 572 l 488 572 m 206 150 l 206 275 l 329 275 l 329 150 l 206 150 m 346 10 l 346 133 l 471 133 l 471 10 l 346 10 m 206 572 l 206 697 l 329 697 l 329 572 l 206 572 m 488 150 l 488 275 l 611 275 l 611 150 l 488 150 m 488 415 l 611 415 l 611 292 l 488 292 l 488 415 m 628 292 l 628 415 l 751 415 l 751 292 l 628 292 m 628 432 l 628 556 l 751 556 l 751 432 l 628 432 m 329 133 l 329 10 l 206 10 l 206 133 l 329 133 m 206 432 l 206 556 l 329 556 l 329 432 l 206 432 m 206 292 l 206 415 l 329 415 l 329 292 l 206 292 m 488 556 l 611 556 l 611 432 l 488 432 l 488 556 m 488 10 l 488 133 l 611 133 l 611 10 l 488 10 z "},"p":{"ha":818,"x_min":64,"x_max":751,"o":"m 64 697 l 189 697 l 189 572 l 64 572 l 64 697 m 64 -7 l 189 -7 l 189 -132 l 64 -132 l 64 -7 m 346 697 l 471 697 l 471 572 l 346 572 l 346 697 m 64 275 l 189 275 l 189 150 l 64 150 l 64 275 m 64 -150 l 189 -150 l 189 -275 l 64 -275 l 64 -150 m 628 150 l 628 275 l 751 275 l 751 150 l 628 150 m 189 133 l 189 10 l 64 10 l 64 133 l 189 133 m 64 556 l 189 556 l 189 432 l 64 432 l 64 556 m 206 -150 l 329 -150 l 329 -275 l 206 -275 l 206 -150 m 611 697 l 611 572 l 488 572 l 488 697 l 611 697 m 611 275 l 611 150 l 488 150 l 488 275 l 611 275 m 329 -7 l 329 -132 l 206 -132 l 206 -7 l 329 -7 m 206 150 l 206 275 l 329 275 l 329 150 l 206 150 m 346 133 l 471 133 l 471 10 l 346 10 l 346 133 m 64 415 l 189 415 l 189 292 l 64 292 l 64 415 m 206 697 l 329 697 l 329 572 l 206 572 l 206 697 m 628 292 l 628 415 l 751 415 l 751 292 l 628 292 m 628 556 l 751 556 l 751 432 l 628 432 l 628 556 m 488 292 l 488 415 l 611 415 l 611 292 l 488 292 m 206 133 l 329 133 l 329 10 l 206 10 l 206 133 m 206 292 l 206 415 l 329 415 l 329 292 l 206 292 m 206 432 l 206 556 l 329 556 l 329 432 l 206 432 m 488 432 l 488 556 l 611 556 l 611 432 l 488 432 m 611 133 l 611 10 l 488 10 l 488 133 l 611 133 z "},"q":{"ha":844,"x_min":64,"x_max":751,"o":"m 346 572 l 346 697 l 471 697 l 471 572 l 346 572 m 189 275 l 189 150 l 64 150 l 64 275 l 189 275 m 488 -132 l 488 -7 l 611 -7 l 611 -132 l 488 -132 m 628 -275 l 628 -150 l 751 -150 l 751 -275 l 628 -275 m 488 572 l 488 697 l 611 697 l 611 572 l 488 572 m 628 -132 l 628 -7 l 751 -7 l 751 -132 l 628 -132 m 751 697 l 751 572 l 628 572 l 628 697 l 751 697 m 64 432 l 64 556 l 189 556 l 189 432 l 64 432 m 189 415 l 189 292 l 64 292 l 64 415 l 189 415 m 488 150 l 488 275 l 611 275 l 611 150 l 488 150 m 206 150 l 206 275 l 329 275 l 329 150 l 206 150 m 628 275 l 751 275 l 751 150 l 628 150 l 628 275 m 346 133 l 471 133 l 471 10 l 346 10 l 346 133 m 206 572 l 206 697 l 329 697 l 329 572 l 206 572 m 611 -150 l 611 -275 l 488 -275 l 488 -150 l 611 -150 m 751 133 l 751 10 l 628 10 l 628 133 l 751 133 m 628 292 l 628 415 l 751 415 l 751 292 l 628 292 m 488 10 l 488 133 l 611 133 l 611 10 l 488 10 m 628 556 l 751 556 l 751 432 l 628 432 l 628 556 m 611 556 l 611 432 l 488 432 l 488 556 l 611 556 m 206 10 l 206 133 l 329 133 l 329 10 l 206 10 m 206 432 l 206 556 l 329 556 l 329 432 l 206 432 m 488 292 l 488 415 l 611 415 l 611 292 l 488 292 m 206 292 l 206 415 l 329 415 l 329 292 l 206 292 z "},"r":{"ha":683,"x_min":64,"x_max":611,"o":"m 64 150 l 64 275 l 189 275 l 189 150 l 64 150 m 64 697 l 189 697 l 189 572 l 64 572 l 64 697 m 64 432 l 64 556 l 189 556 l 189 432 l 64 432 m 488 697 l 611 697 l 611 572 l 488 572 l 488 697 m 64 292 l 64 415 l 189 415 l 189 292 l 64 292 m 471 556 l 471 432 l 346 432 l 346 556 l 471 556 m 206 572 l 206 697 l 329 697 l 329 572 l 206 572 m 64 133 l 189 133 l 189 10 l 64 10 l 64 133 m 329 275 l 329 150 l 206 150 l 206 275 l 329 275 m 206 292 l 206 415 l 329 415 l 329 292 l 206 292 m 206 432 l 206 556 l 329 556 l 329 432 l 206 432 m 206 10 l 206 133 l 329 133 l 329 10 l 206 10 m 488 556 l 611 556 l 611 432 l 488 432 l 488 556 z "},"s":{"ha":706,"x_min":75,"x_max":622,"o":"m 482 275 l 482 150 l 357 150 l 357 275 l 482 275 m 482 697 l 482 572 l 357 572 l 357 697 l 482 697 m 75 432 l 75 556 l 200 556 l 200 432 l 75 432 m 482 415 l 482 292 l 357 292 l 357 415 l 482 415 m 622 697 l 622 572 l 499 572 l 499 697 l 622 697 m 75 10 l 75 133 l 200 133 l 200 10 l 75 10 m 200 415 l 200 292 l 75 292 l 75 415 l 200 415 m 217 697 l 340 697 l 340 572 l 217 572 l 217 697 m 357 10 l 357 133 l 482 133 l 482 10 l 357 10 m 499 275 l 622 275 l 622 150 l 499 150 l 499 275 m 217 133 l 340 133 l 340 10 l 217 10 l 217 133 m 499 292 l 499 415 l 622 415 l 622 292 l 499 292 m 340 556 l 340 432 l 217 432 l 217 556 l 340 556 m 217 415 l 340 415 l 340 292 l 217 292 l 217 415 z "},"t":{"ha":829,"x_min":64,"x_max":751,"o":"m 346 697 l 471 697 l 471 572 l 346 572 l 346 697 m 346 275 l 471 275 l 471 150 l 346 150 l 346 275 m 64 572 l 64 697 l 189 697 l 189 572 l 64 572 m 206 275 l 329 275 l 329 150 l 206 150 l 206 275 m 751 697 l 751 572 l 628 572 l 628 697 l 751 697 m 346 10 l 346 133 l 471 133 l 471 10 l 346 10 m 206 572 l 206 697 l 329 697 l 329 572 l 206 572 m 346 432 l 346 556 l 471 556 l 471 432 l 346 432 m 346 292 l 346 415 l 471 415 l 471 292 l 346 292 m 488 572 l 488 697 l 611 697 l 611 572 l 488 572 m 471 838 l 471 714 l 346 714 l 346 838 l 471 838 m 488 133 l 611 133 l 611 10 l 488 10 l 488 133 m 206 556 l 329 556 l 329 432 l 206 432 l 206 556 m 628 133 l 751 133 l 751 10 l 628 10 l 628 133 m 206 838 l 329 838 l 329 714 l 206 714 l 206 838 m 329 415 l 329 292 l 206 292 l 206 415 l 329 415 z "},"u":{"ha":839,"x_min":64,"x_max":751,"o":"m 189 697 l 189 572 l 64 572 l 64 697 l 189 697 m 64 275 l 189 275 l 189 150 l 64 150 l 64 275 m 628 275 l 751 275 l 751 150 l 628 150 l 628 275 m 64 415 l 189 415 l 189 292 l 64 292 l 64 415 m 488 697 l 611 697 l 611 572 l 488 572 l 488 697 m 628 697 l 751 697 l 751 572 l 628 572 l 628 697 m 488 150 l 488 275 l 611 275 l 611 150 l 488 150 m 471 133 l 471 10 l 346 10 l 346 133 l 471 133 m 64 556 l 189 556 l 189 432 l 64 432 l 64 556 m 206 150 l 206 275 l 329 275 l 329 150 l 206 150 m 206 572 l 206 697 l 329 697 l 329 572 l 206 572 m 628 556 l 751 556 l 751 432 l 628 432 l 628 556 m 628 415 l 751 415 l 751 292 l 628 292 l 628 415 m 628 10 l 628 133 l 751 133 l 751 10 l 628 10 m 206 292 l 206 415 l 329 415 l 329 292 l 206 292 m 488 415 l 611 415 l 611 292 l 488 292 l 488 415 m 488 133 l 611 133 l 611 10 l 488 10 l 488 133 m 206 432 l 206 556 l 329 556 l 329 432 l 206 432 m 488 556 l 611 556 l 611 432 l 488 432 l 488 556 m 206 10 l 206 133 l 329 133 l 329 10 l 206 10 z "},"v":{"ha":839,"x_min":64,"x_max":751,"o":"m 346 275 l 471 275 l 471 150 l 346 150 l 346 275 m 64 697 l 189 697 l 189 572 l 64 572 l 64 697 m 628 572 l 628 697 l 751 697 l 751 572 l 628 572 m 488 697 l 611 697 l 611 572 l 488 572 l 488 697 m 64 415 l 189 415 l 189 292 l 64 292 l 64 415 m 64 432 l 64 556 l 189 556 l 189 432 l 64 432 m 206 275 l 329 275 l 329 150 l 206 150 l 206 275 m 611 275 l 611 150 l 488 150 l 488 275 l 611 275 m 206 572 l 206 697 l 329 697 l 329 572 l 206 572 m 471 133 l 471 10 l 346 10 l 346 133 l 471 133 m 488 556 l 611 556 l 611 432 l 488 432 l 488 556 m 628 556 l 751 556 l 751 432 l 628 432 l 628 556 m 751 415 l 751 292 l 628 292 l 628 415 l 751 415 m 206 10 l 206 133 l 329 133 l 329 10 l 206 10 m 206 292 l 206 415 l 329 415 l 329 292 l 206 292 m 206 432 l 206 556 l 329 556 l 329 432 l 206 432 m 488 415 l 611 415 l 611 292 l 488 292 l 488 415 m 488 10 l 488 133 l 611 133 l 611 10 l 488 10 z "},"w":{"ha":1258,"x_min":64,"x_max":1175,"o":"m 768 275 l 893 275 l 893 150 l 768 150 l 768 275 m 1175 697 l 1175 572 l 1050 572 l 1050 697 l 1175 697 m 346 150 l 346 275 l 471 275 l 471 150 l 346 150 m 189 697 l 189 572 l 64 572 l 64 697 l 189 697 m 768 133 l 893 133 l 893 10 l 768 10 l 768 133 m 64 556 l 189 556 l 189 432 l 64 432 l 64 556 m 910 697 l 1033 697 l 1033 572 l 910 572 l 910 697 m 910 275 l 1033 275 l 1033 150 l 910 150 l 910 275 m 189 415 l 189 292 l 64 292 l 64 415 l 189 415 m 628 275 l 751 275 l 751 150 l 628 150 l 628 275 m 329 275 l 329 150 l 206 150 l 206 275 l 329 275 m 488 150 l 488 275 l 611 275 l 611 150 l 488 150 m 488 697 l 611 697 l 611 572 l 488 572 l 488 697 m 346 10 l 346 133 l 471 133 l 471 10 l 346 10 m 1050 415 l 1175 415 l 1175 292 l 1050 292 l 1050 415 m 206 697 l 329 697 l 329 572 l 206 572 l 206 697 m 1050 556 l 1175 556 l 1175 432 l 1050 432 l 1050 556 m 628 572 l 628 697 l 751 697 l 751 572 l 628 572 m 910 133 l 1033 133 l 1033 10 l 910 10 l 910 133 m 910 556 l 1033 556 l 1033 432 l 910 432 l 910 556 m 488 556 l 611 556 l 611 432 l 488 432 l 488 556 m 910 415 l 1033 415 l 1033 292 l 910 292 l 910 415 m 628 432 l 628 556 l 751 556 l 751 432 l 628 432 m 206 415 l 329 415 l 329 292 l 206 292 l 206 415 m 628 292 l 628 415 l 751 415 l 751 292 l 628 292 m 206 556 l 329 556 l 329 432 l 206 432 l 206 556 m 329 133 l 329 10 l 206 10 l 206 133 l 329 133 m 611 415 l 611 292 l 488 292 l 488 415 l 611 415 z "},"x":{"ha":835,"x_min":75,"x_max":763,"o":"m 200 697 l 200 572 l 75 572 l 75 697 l 200 697 m 75 150 l 75 275 l 200 275 l 200 150 l 75 150 m 75 432 l 75 556 l 200 556 l 200 432 l 75 432 m 499 572 l 499 697 l 622 697 l 622 572 l 499 572 m 639 572 l 639 697 l 763 697 l 763 572 l 639 572 m 639 275 l 763 275 l 763 150 l 639 150 l 639 275 m 217 572 l 217 697 l 340 697 l 340 572 l 217 572 m 217 150 l 217 275 l 340 275 l 340 150 l 217 150 m 75 133 l 200 133 l 200 10 l 75 10 l 75 133 m 357 415 l 482 415 l 482 292 l 357 292 l 357 415 m 622 275 l 622 150 l 499 150 l 499 275 l 622 275 m 639 556 l 763 556 l 763 432 l 639 432 l 639 556 m 639 10 l 639 133 l 763 133 l 763 10 l 639 10 m 622 556 l 622 432 l 499 432 l 499 556 l 622 556 m 340 415 l 340 292 l 217 292 l 217 415 l 340 415 m 217 432 l 217 556 l 340 556 l 340 432 l 217 432 m 217 10 l 217 133 l 340 133 l 340 10 l 217 10 m 622 415 l 622 292 l 499 292 l 499 415 l 622 415 m 499 10 l 499 133 l 622 133 l 622 10 l 499 10 z "},"y":{"ha":835,"x_min":75,"x_max":763,"o":"m 75 697 l 200 697 l 200 572 l 75 572 l 75 697 m 357 150 l 357 275 l 482 275 l 482 150 l 357 150 m 357 -132 l 357 -7 l 482 -7 l 482 -132 l 357 -132 m 75 -150 l 200 -150 l 200 -275 l 75 -275 l 75 -150 m 622 697 l 622 572 l 499 572 l 499 697 l 622 697 m 639 697 l 763 697 l 763 572 l 639 572 l 639 697 m 75 556 l 200 556 l 200 432 l 75 432 l 75 556 m 499 150 l 499 275 l 622 275 l 622 150 l 499 150 m 217 572 l 217 697 l 340 697 l 340 572 l 217 572 m 340 275 l 340 150 l 217 150 l 217 275 l 340 275 m 340 -7 l 340 -132 l 217 -132 l 217 -7 l 340 -7 m 357 10 l 357 133 l 482 133 l 482 10 l 357 10 m 217 -275 l 217 -150 l 340 -150 l 340 -275 l 217 -275 m 200 415 l 200 292 l 75 292 l 75 415 l 200 415 m 639 415 l 763 415 l 763 292 l 639 292 l 639 415 m 639 556 l 763 556 l 763 432 l 639 432 l 639 556 m 499 556 l 622 556 l 622 432 l 499 432 l 499 556 m 217 292 l 217 415 l 340 415 l 340 292 l 217 292 m 499 415 l 622 415 l 622 292 l 499 292 l 499 415 m 622 133 l 622 10 l 499 10 l 499 133 l 622 133 m 217 432 l 217 556 l 340 556 l 340 432 l 217 432 z "},"z":{"ha":689,"x_min":64,"x_max":611,"o":"m 471 697 l 471 572 l 346 572 l 346 697 l 471 697 m 64 572 l 64 697 l 189 697 l 189 572 l 64 572 m 64 275 l 189 275 l 189 150 l 64 150 l 64 275 m 346 556 l 471 556 l 471 432 l 346 432 l 346 556 m 471 133 l 471 10 l 346 10 l 346 133 l 471 133 m 64 10 l 64 133 l 189 133 l 189 10 l 64 10 m 346 415 l 471 415 l 471 292 l 346 292 l 346 415 m 206 275 l 329 275 l 329 150 l 206 150 l 206 275 m 206 697 l 329 697 l 329 572 l 206 572 l 206 697 m 611 697 l 611 572 l 488 572 l 488 697 l 611 697 m 611 133 l 611 10 l 488 10 l 488 133 l 611 133 m 206 133 l 329 133 l 329 10 l 206 10 l 206 133 m 206 292 l 206 415 l 329 415 l 329 292 l 206 292 m 611 556 l 611 432 l 488 432 l 488 556 l 611 556 z "},"{":{"ha":694,"x_min":60,"x_max":611,"o":"m 329 838 l 329 713 l 204 713 l 204 838 l 329 838 m 204 415 l 329 415 l 329 290 l 204 290 l 204 415 m 346 -10 l 471 -10 l 471 -135 l 346 -135 l 346 -10 m 204 133 l 329 133 l 329 8 l 204 8 l 204 133 m 346 994 l 346 1119 l 471 1119 l 471 994 l 346 994 m 488 -135 l 488 -10 l 611 -10 l 611 -135 l 488 -135 m 346 133 l 469 133 l 469 8 l 346 8 l 346 133 m 469 838 l 469 713 l 346 713 l 346 838 l 469 838 m 488 1119 l 611 1119 l 611 994 l 488 994 l 488 1119 m 60 556 l 185 556 l 185 432 l 60 432 l 60 556 m 346 290 l 346 415 l 469 415 l 469 290 l 346 290 m 204 696 l 329 696 l 329 572 l 204 572 l 204 696 m 204 556 l 329 556 l 329 432 l 204 432 l 204 556 m 204 274 l 329 274 l 329 150 l 204 150 l 204 274 m 204 854 l 204 978 l 329 978 l 329 854 l 204 854 m 346 978 l 469 978 l 469 854 l 346 854 l 346 978 m 346 696 l 469 696 l 469 572 l 346 572 l 346 696 m 346 556 l 469 556 l 469 432 l 346 432 l 346 556 m 346 274 l 469 274 l 469 150 l 346 150 l 346 274 z "},"|":{"ha":400,"x_min":64,"x_max":329,"o":"m 64 839 l 189 839 l 189 714 l 64 714 l 64 839 m 64 417 l 189 417 l 189 292 l 64 292 l 64 417 m 64 -8 l 189 -8 l 189 -133 l 64 -133 l 64 -8 m 64 135 l 189 135 l 189 10 l 64 10 l 64 135 m 64 996 l 64 1121 l 189 1121 l 189 996 l 64 996 m 206 996 l 206 1121 l 329 1121 l 329 996 l 206 996 m 64 697 l 189 697 l 189 574 l 64 574 l 64 697 m 206 839 l 329 839 l 329 714 l 206 714 l 206 839 m 64 151 l 64 275 l 189 275 l 189 151 l 64 151 m 206 292 l 206 417 l 329 417 l 329 292 l 206 292 m 64 979 l 189 979 l 189 856 l 64 856 l 64 979 m 206 -133 l 206 -8 l 329 -8 l 329 -133 l 206 -133 m 64 433 l 64 557 l 189 557 l 189 433 l 64 433 m 329 135 l 329 10 l 206 10 l 206 135 l 329 135 m 329 275 l 329 151 l 206 151 l 206 275 l 329 275 m 206 574 l 206 697 l 329 697 l 329 574 l 206 574 m 206 433 l 206 557 l 329 557 l 329 433 l 206 433 m 206 979 l 329 979 l 329 856 l 206 856 l 206 979 z "},"}":{"ha":679,"x_min":64,"x_max":611,"o":"m 471 415 l 471 290 l 346 290 l 346 415 l 471 415 m 471 133 l 471 8 l 346 8 l 346 133 l 471 133 m 346 838 l 471 838 l 471 713 l 346 713 l 346 838 m 64 -135 l 64 -10 l 189 -10 l 189 -135 l 64 -135 m 64 1119 l 189 1119 l 189 994 l 64 994 l 64 1119 m 206 1119 l 329 1119 l 329 994 l 206 994 l 206 1119 m 206 713 l 206 838 l 329 838 l 329 713 l 206 713 m 471 978 l 471 854 l 346 854 l 346 978 l 471 978 m 346 150 l 346 274 l 471 274 l 471 150 l 346 150 m 206 -135 l 206 -10 l 329 -10 l 329 -135 l 206 -135 m 329 133 l 329 8 l 206 8 l 206 133 l 329 133 m 329 415 l 329 290 l 206 290 l 206 415 l 329 415 m 471 556 l 471 432 l 346 432 l 346 556 l 471 556 m 471 696 l 471 572 l 346 572 l 346 696 l 471 696 m 206 572 l 206 696 l 329 696 l 329 572 l 206 572 m 329 274 l 329 150 l 206 150 l 206 274 l 329 274 m 329 978 l 329 854 l 206 854 l 206 978 l 329 978 m 488 556 l 611 556 l 611 432 l 488 432 l 488 556 z "},"~":{"ha":974,"x_min":64,"x_max":893,"o":"m 189 697 l 189 572 l 64 572 l 64 697 l 189 697 m 768 697 l 893 697 l 893 572 l 768 572 l 768 697 m 346 572 l 346 697 l 471 697 l 471 572 l 346 572 m 488 572 l 488 697 l 611 697 l 611 572 l 488 572 m 346 714 l 346 838 l 471 838 l 471 714 l 346 714 m 189 556 l 189 432 l 64 432 l 64 556 l 189 556 m 893 838 l 893 714 l 768 714 l 768 838 l 893 838 m 611 556 l 611 432 l 488 432 l 488 556 l 611 556 m 628 556 l 751 556 l 751 432 l 628 432 l 628 556 m 206 838 l 329 838 l 329 714 l 206 714 l 206 838 z "}}}
